<svg width="402" height="50" viewBox="0 0 402 50" fill="none" xmlns="http://www.w3.org/2000/svg">
<g clip-path="url(#clip0_2988_273)">
<path d="M0 25.5097V0.997712H10.6062C12.0695 0.92679 13.5317 1.15867 14.9007 1.67855C16.2698 2.19842 17.5161 2.99507 18.5612 4.01852C20.6961 6.14677 21.7635 9.17909 21.7635 13.1154C21.9318 16.3007 20.9548 19.4414 19.0082 21.9729C17.9722 23.1638 16.6758 24.1018 15.219 24.7148C13.7621 25.3277 12.1836 25.5992 10.605 25.5083L0 25.5097ZM5.4065 5.52952V20.9779H10.2273C11.0091 21.0097 11.7891 20.8797 12.518 20.596C13.2469 20.3124 13.9089 19.8812 14.4624 19.3298C15.1393 18.5513 15.6551 17.6472 15.9803 16.6693C16.3054 15.6913 16.4335 14.6589 16.357 13.6314C16.5091 11.5513 15.977 9.4785 14.8413 7.72694C14.1492 6.95052 13.2837 6.34717 12.3146 5.96548C11.3456 5.58379 10.3002 5.4344 9.26264 5.52952H5.4065Z" fill="#0B1137"/>
<path d="M29.6849 13.2153H24.7948C24.8134 12.2626 25.0805 11.3312 25.5696 10.5126C26.0588 9.69396 26.7533 9.01639 27.5848 8.54646C29.294 7.63152 31.219 7.19279 33.1572 7.27627C38.3689 7.27627 40.9747 8.95847 40.9747 12.3228V21.558C40.8595 22.9052 41.0719 24.2603 41.5939 25.5082H36.6406C36.4506 24.9534 36.3348 24.3761 36.2963 23.7911C35.5064 24.5536 34.5653 25.1431 33.5333 25.5215C32.5013 25.8999 31.4014 26.059 30.3041 25.9885C28.7607 26.066 27.2386 25.6045 25.9997 24.6837C25.4117 24.1982 24.9463 23.5817 24.6413 22.8839C24.3363 22.1861 24.2001 21.4265 24.2438 20.6666C24.1916 19.887 24.3379 19.1069 24.6691 18.3988C25.0004 17.6907 25.5058 17.0775 26.1384 16.6163C27.4149 15.877 28.836 15.4202 30.3053 15.2769C32.9471 14.9107 34.2903 14.716 34.3348 14.693C35.5055 14.3959 36.0908 13.8124 36.0908 12.9425C36.1319 12.554 36.0633 12.1617 35.8929 11.8099C35.7224 11.4581 35.4569 11.1607 35.1261 10.9512C34.4385 10.6292 33.6798 10.4877 32.9219 10.5401C30.9249 10.5385 29.8459 11.4302 29.6849 13.2153ZM36.0908 18.6396V16.8162C35.3217 17.2895 34.445 17.5613 33.5423 17.6063C32.5352 17.7221 31.5427 17.9406 30.5803 18.2582C30.1385 18.4271 29.7612 18.7301 29.5017 19.1244C29.2421 19.5187 29.1134 19.9843 29.1339 20.4555C29.1339 21.9665 30.1324 22.7217 32.1294 22.7209C34.767 22.7233 36.0858 21.3629 36.0858 18.6396H36.0908Z" fill="#0B1137"/>
<path d="M50.9655 2.43591V7.76143H54.5467V11.0229H50.9655V19.8112C50.8778 20.0975 50.87 20.4022 50.9427 20.6926C51.0154 20.983 51.166 21.2483 51.3784 21.4599C51.5907 21.6716 51.8567 21.8217 52.1481 21.8942C52.4394 21.9667 52.745 21.959 53.0322 21.8716C53.5408 21.8759 54.0485 21.8299 54.5479 21.7345V25.5454C53.6012 25.6766 52.6456 25.734 51.6899 25.717C47.9477 25.717 46.0766 24.3097 46.0766 21.495V11.0241H43.1146V7.76143H46.0766V2.43953L50.9655 2.43591Z" fill="#0B1137"/>
<path d="M61.5729 13.2154H56.6828C56.7014 12.2627 56.9684 11.3313 57.4576 10.5127C57.9468 9.69407 58.6412 9.0165 59.4727 8.54658C61.1838 7.63061 63.1111 7.19185 65.0514 7.27638C70.2622 7.27638 72.868 8.95858 72.8689 12.323V21.5581C72.7535 22.9053 72.9659 24.2604 73.488 25.5084H68.5347C68.3448 24.9536 68.229 24.3762 68.1905 23.7912C67.4005 24.5537 66.4594 25.1432 65.4275 25.5216C64.3955 25.9 63.2955 26.0591 62.1983 25.9886C60.6549 26.066 59.1328 25.6045 57.8938 24.6838C57.3058 24.1983 56.8405 23.5818 56.5355 22.884C56.2305 22.1862 56.0943 21.4266 56.1379 20.6667C56.0857 19.8871 56.2321 19.1071 56.5633 18.3989C56.8946 17.6908 57.3999 17.0776 58.0325 16.6164C59.309 15.877 60.7303 15.4203 62.1995 15.277C64.8413 14.9108 66.1844 14.7161 66.229 14.6931C67.3996 14.396 67.985 13.8125 67.985 12.9426C68.026 12.5541 67.9575 12.1618 67.787 11.81C67.6166 11.4582 67.351 11.1608 67.0203 10.9513C66.3327 10.6293 65.574 10.4878 64.8161 10.5403C62.8141 10.5386 61.7331 11.4303 61.5729 13.2154ZM67.9788 18.6397V16.8163C67.2097 17.2897 66.333 17.5615 65.4303 17.6064C64.4231 17.7222 63.4306 17.9407 62.4682 18.2583C62.0265 18.4272 61.6492 18.7302 61.3896 19.1245C61.1301 19.5188 61.0014 19.9844 61.0218 20.4556C61.0218 21.9666 62.0208 22.7218 64.0186 22.721C66.6579 22.7234 67.9775 21.363 67.9775 18.6397H67.9788Z" fill="#0B1137"/>
<path d="M75.6167 17.3695H80.8511C80.8129 18.044 80.944 18.7175 81.2327 19.3288C81.5214 19.9401 81.9584 20.4699 82.5043 20.8704C83.6241 21.6084 84.9516 21.9693 86.2922 21.9001C87.3547 21.9342 88.4116 21.7349 89.388 21.3161C89.8905 21.1285 90.3225 20.7904 90.6247 20.3484C90.9269 19.9063 91.0845 19.382 91.0759 18.8472C91.0759 17.4481 89.8132 16.3955 87.2879 15.6894C82.9257 14.4549 80.5729 13.7455 80.2294 13.5611C79.0862 13.1058 78.1103 12.3121 77.433 11.2872C76.7558 10.2622 76.4098 9.05506 76.4415 7.82813C76.4123 6.72427 76.6657 5.63121 77.1779 4.65211C77.6901 3.67302 78.4442 2.84023 79.3689 2.23227C81.2162 0.988529 83.4076 0.352256 85.636 0.412648C88.0538 0.300642 90.4472 0.936172 92.4888 2.23227C93.4656 2.90717 94.2535 3.81937 94.7777 4.88268C95.3019 5.94598 95.5451 7.12517 95.4843 8.30839H90.25C90.1121 5.83943 88.4936 4.60495 85.3945 4.60495C84.5157 4.5774 83.6462 4.79091 82.8807 5.22219C82.5026 5.44045 82.1908 5.75681 81.9786 6.13765C81.7664 6.5185 81.6618 6.94953 81.6758 7.38494C81.6684 7.80977 81.7937 8.22632 82.0345 8.57693C82.2752 8.92754 82.6195 9.19478 83.0194 9.34155C84.979 10.0469 86.9801 10.6317 89.0117 11.0922C90.5255 11.4089 91.9787 11.9653 93.3161 12.7401C94.2619 13.3058 95.0385 14.1136 95.5653 15.0797C96.092 16.0457 96.3497 17.1346 96.3115 18.2335C96.3462 19.3105 96.1277 20.3806 95.6734 21.3583C95.219 22.336 94.5415 23.1941 93.695 23.8641C91.4947 25.4658 88.8041 26.2549 86.0842 26.096C83.4852 26.2036 80.9213 25.4672 78.7781 23.9974C77.739 23.2427 76.9055 22.2411 76.3534 21.0836C75.8013 19.9261 75.5481 18.6493 75.6167 17.3695Z" fill="#0B1137"/>
<path d="M99.0049 31.7536V7.75641H103.654V10.0218H103.723C104.271 9.12462 105.055 8.3942 105.99 7.90997C106.925 7.42573 107.975 7.20607 109.027 7.27494C110.207 7.21832 111.384 7.45174 112.452 7.95457C113.521 8.45741 114.45 9.21434 115.156 10.1588C116.536 12.1016 117.226 14.4472 117.119 16.825C117.202 19.1023 116.511 21.3407 115.156 23.1764C114.485 24.0868 113.601 24.8193 112.58 25.31C111.56 25.8006 110.434 26.0344 109.302 25.991C108.254 26.0493 107.21 25.8329 106.274 25.363C105.337 24.8931 104.54 24.1864 103.963 23.3134H103.895V31.7585L99.0049 31.7536ZM107.993 22.3122C110.817 22.3122 112.229 20.4353 112.229 16.6817C112.288 15.3123 111.954 13.9546 111.264 12.7685C110.931 12.1944 110.447 11.7217 109.865 11.4011C109.282 11.0805 108.623 10.9242 107.958 10.9489C107.295 10.9114 106.635 11.0586 106.051 11.3738C105.467 11.6891 104.982 12.1599 104.652 12.7338C103.982 13.9398 103.66 15.3072 103.722 16.6843C103.658 18.0435 103.994 19.3917 104.686 20.5642C105.027 21.1263 105.515 21.5858 106.097 21.8936C106.679 22.2014 107.334 22.3461 107.993 22.3122Z" fill="#0B1137"/>
<path d="M124.728 13.2154H119.838C119.857 12.2627 120.124 11.3313 120.613 10.5127C121.102 9.69407 121.797 9.01642 122.628 8.54659C124.339 7.63056 126.267 7.1918 128.207 7.27639C133.419 7.27639 136.024 8.9586 136.024 12.323V21.5581C135.909 22.9053 136.122 24.2604 136.644 25.5084H131.69C131.5 24.9536 131.384 24.3762 131.346 23.7912C130.556 24.5537 129.615 25.1432 128.583 25.5216C127.551 25.9001 126.451 26.0591 125.354 25.9886C123.81 26.066 122.288 25.6045 121.049 24.6838C120.461 24.1982 119.996 23.5817 119.691 22.8839C119.386 22.1861 119.25 21.4266 119.294 20.6667C119.241 19.8871 119.387 19.1071 119.719 18.3989C120.05 17.6908 120.555 17.0775 121.188 16.6164C122.465 15.8771 123.886 15.4203 125.355 15.277C127.997 14.9108 129.34 14.7161 129.385 14.6931C130.555 14.396 131.14 13.8125 131.14 12.9426C131.182 12.5541 131.113 12.1618 130.943 11.81C130.772 11.4582 130.507 11.1609 130.176 10.9514C129.488 10.6293 128.73 10.4878 127.972 10.5403C125.971 10.5386 124.889 11.4303 124.728 13.2154ZM131.133 18.6398V16.8164C130.364 17.2897 129.487 17.5615 128.585 17.6064C127.578 17.7222 126.585 17.9408 125.623 18.2583C125.181 18.4272 124.803 18.7302 124.544 19.1245C124.284 19.5189 124.156 19.9844 124.176 20.4556C124.176 21.9666 125.175 22.7218 127.172 22.721C129.81 22.7235 131.129 21.363 131.129 18.6398H131.133Z" fill="#0B1137"/>
<path d="M156.72 14.0056H151.933C151.906 13.5648 151.791 13.1339 151.593 12.739C151.394 12.344 151.118 11.9932 150.78 11.7076C150.442 11.4221 150.05 11.2078 149.626 11.0776C149.203 10.9474 148.758 10.9041 148.317 10.9503C147.65 10.9325 146.991 11.0996 146.413 11.4331C145.836 11.7665 145.362 12.2533 145.045 12.839C144.415 14.0327 144.106 15.3693 144.15 16.7178C144.105 18.0226 144.414 19.3155 145.045 20.4595C145.344 21.035 145.8 21.5144 146.361 21.8421C146.921 22.1698 147.564 22.3325 148.213 22.3112C150.463 22.3112 151.76 21.1096 152.105 18.7065H156.823C156.654 20.7911 155.671 22.7265 154.085 24.0963C152.428 25.3997 150.357 26.0694 148.248 25.985C147.048 26.0318 145.852 25.8302 144.735 25.3929C143.618 24.9556 142.604 24.2922 141.756 23.4444C140.92 22.5745 140.268 21.5456 139.839 20.4189C139.41 19.2923 139.213 18.091 139.26 16.8868C139.143 14.3795 139.993 11.9226 141.636 10.0206C142.487 9.10157 143.528 8.37943 144.688 7.90488C145.849 7.43034 147.099 7.21496 148.352 7.27393C150.363 7.20269 152.344 7.7808 154 8.92207C154.813 9.50576 155.481 10.2674 155.952 11.1487C156.424 12.03 156.687 13.0073 156.72 14.0056Z" fill="#0B1137"/>
<path d="M176.452 17.815H163.607C163.745 20.8132 165.203 22.3122 167.981 22.3122C168.887 22.3225 169.775 22.0592 170.529 21.5568C171.15 21.2316 171.62 20.6774 171.838 20.0123H176.142C175.674 21.8231 174.584 23.4127 173.061 24.5043C171.538 25.5959 169.679 26.1204 167.808 25.9861C166.583 26.0448 165.358 25.844 164.216 25.3972C163.073 24.9504 162.039 24.2676 161.18 23.3936C159.579 21.5115 158.706 19.1206 158.718 16.6529C158.731 14.1852 159.629 11.8035 161.249 9.93784C162.092 9.05693 163.113 8.36431 164.244 7.90573C165.376 7.44715 166.592 7.23301 167.812 7.27749C169.112 7.21765 170.407 7.48118 171.579 8.04452C172.751 8.60786 173.765 9.45332 174.528 10.5044C176.038 12.6278 176.721 15.2261 176.452 17.815ZM163.607 14.7288H171.562C171.102 12.2113 169.805 10.9525 167.67 10.9525C167.071 10.9173 166.472 11.0234 165.921 11.2621C165.371 11.5008 164.885 11.8655 164.502 12.3265C163.953 13.0097 163.639 13.8512 163.607 14.7263V14.7288Z" fill="#0B1137"/>
<path d="M186.913 25.5059L196.033 5.30103H199.74L208.889 25.5059H204.952L197.106 7.29229H198.612L190.794 25.5059H186.913ZM191.111 20.8297L192.124 17.8855H203.068L204.081 20.8297H191.111Z" fill="#0B1137"/>
<path d="M230.692 25.7947C229.223 25.8081 227.765 25.5485 226.392 25.0294C225.11 24.5454 223.938 23.8094 222.947 22.8652C221.971 21.93 221.198 20.8053 220.675 19.5605C219.594 16.8943 219.594 13.9137 220.675 11.2475C221.2 10.0001 221.978 8.87482 222.962 7.9428C223.957 7.00285 225.127 6.26709 226.407 5.77748C229.272 4.72825 232.423 4.75907 235.267 5.86398C236.613 6.41384 237.805 7.28048 238.742 8.38976L236.31 10.6698C235.63 9.91174 234.794 9.30829 233.86 8.90001C232.926 8.49172 231.915 8.28815 230.895 8.30326C229.9 8.29113 228.913 8.46752 227.985 8.823C227.13 9.15165 226.353 9.65167 225.7 10.2921C225.048 10.9326 224.534 11.6998 224.192 12.5462C223.477 14.3844 223.477 16.4224 224.192 18.2606C224.534 19.1073 225.048 19.8747 225.7 20.5152C226.353 21.1557 227.13 21.6556 227.985 21.9838C228.913 22.3393 229.9 22.5157 230.895 22.5036C231.91 22.5131 232.915 22.3117 233.848 21.9123C234.789 21.4938 235.628 20.8786 236.31 20.1086L238.742 22.4184C237.796 23.5147 236.606 24.3746 235.267 24.9293C233.816 25.5221 232.26 25.8165 230.692 25.7947Z" fill="#0B1137"/>
<path d="M249.195 25.5059L258.315 5.30103H262.021L271.17 25.5059H267.232L259.386 7.29229H260.892L253.074 25.5059H249.195ZM253.392 20.8297L254.405 17.8855H265.35L266.363 20.8297H253.392Z" fill="#0B1137"/>
<path d="M283.88 25.5058V5.29974H292.74C294.744 5.25607 296.73 5.69172 298.53 6.57009C300.128 7.36036 301.471 8.58035 302.41 10.0921C303.321 11.7123 303.8 13.5385 303.8 15.3959C303.8 17.2534 303.321 19.0797 302.41 20.6999C301.475 22.218 300.131 23.4433 298.53 24.2355C296.73 25.114 294.744 25.5497 292.74 25.5058H283.88ZM287.644 22.3307H292.567C293.935 22.3664 295.291 22.0699 296.519 21.4666C297.594 20.922 298.489 20.0803 299.096 19.0421C299.694 17.9209 300.007 16.6703 300.007 15.4003C300.007 14.1303 299.694 12.8799 299.096 11.7586C298.485 10.7265 297.591 9.88996 296.519 9.34768C295.291 8.74441 293.935 8.44775 292.567 8.48345H287.644V22.3307Z" fill="#0B1137"/>
<path d="M321.693 22.3592H333.13V25.506H317.93V5.29993H332.725V8.44671H321.693V22.3592ZM321.405 13.6994H331.481V16.7856H321.405V13.6994Z" fill="#0B1137"/>
<path d="M347.461 25.506V5.29993H350.557L359.417 20.0495H357.796L366.512 5.29993H369.607L369.636 25.5048H366.075L366.046 10.8712H366.799L359.386 23.1963H357.707L350.179 10.8712H351.046V25.5048L347.461 25.506Z" fill="#0B1137"/>
<path d="M390.227 25.506V17.5102L391.066 19.8187L382.264 5.29993H386.289L393.347 16.9904H391.09L398.212 5.29993H401.919L393.117 19.8187L393.984 17.5102V25.506H390.227Z" fill="#0B1137"/>
<path d="M8.44409 9.71936V17.0856L13.1076 13.6525L8.44409 9.71936Z" fill="#125DFC"/>
<path d="M221.906 42.3408V46.2H220.516V35.8824H223.562C224.215 35.8824 224.781 35.9592 225.261 36.1128C225.746 36.2616 226.147 36.4752 226.464 36.7536C226.78 37.032 227.016 37.368 227.169 37.7616C227.328 38.1552 227.407 38.5944 227.407 39.0792C227.407 39.5592 227.323 39.9984 227.155 40.3968C226.987 40.7952 226.74 41.1384 226.413 41.4264C226.092 41.7144 225.691 41.94 225.211 42.1032C224.731 42.2616 224.181 42.3408 223.562 42.3408H221.906ZM221.906 41.232H223.562C223.96 41.232 224.311 41.1792 224.613 41.0736C224.92 40.968 225.177 40.8216 225.384 40.6344C225.59 40.4424 225.746 40.2144 225.852 39.9504C225.957 39.6864 226.01 39.396 226.01 39.0792C226.01 38.4216 225.806 37.908 225.398 37.5384C224.995 37.1688 224.383 36.984 223.562 36.984H221.906V41.232ZM231.715 38.7912C232.248 38.7912 232.728 38.88 233.155 39.0576C233.587 39.2352 233.952 39.4872 234.249 39.8136C234.552 40.14 234.782 40.536 234.941 41.0016C235.104 41.4624 235.185 41.9784 235.185 42.5496C235.185 43.1256 235.104 43.644 234.941 44.1048C234.782 44.5656 234.552 44.9592 234.249 45.2856C233.952 45.612 233.587 45.864 233.155 46.0416C232.728 46.2144 232.248 46.3008 231.715 46.3008C231.182 46.3008 230.7 46.2144 230.268 46.0416C229.841 45.864 229.476 45.612 229.173 45.2856C228.871 44.9592 228.638 44.5656 228.475 44.1048C228.312 43.644 228.23 43.1256 228.23 42.5496C228.23 41.9784 228.312 41.4624 228.475 41.0016C228.638 40.536 228.871 40.14 229.173 39.8136C229.476 39.4872 229.841 39.2352 230.268 39.0576C230.7 38.88 231.182 38.7912 231.715 38.7912ZM231.715 45.3C232.435 45.3 232.973 45.06 233.328 44.58C233.683 44.0952 233.861 43.4208 233.861 42.5568C233.861 41.688 233.683 41.0112 233.328 40.5264C232.973 40.0416 232.435 39.7992 231.715 39.7992C231.35 39.7992 231.033 39.8616 230.765 39.9864C230.496 40.1112 230.27 40.2912 230.088 40.5264C229.91 40.7616 229.776 41.052 229.685 41.3976C229.598 41.7384 229.555 42.1248 229.555 42.5568C229.555 42.9888 229.598 43.3752 229.685 43.716C229.776 44.0568 229.91 44.3448 230.088 44.58C230.27 44.8104 230.496 44.988 230.765 45.1128C231.033 45.2376 231.35 45.3 231.715 45.3ZM235.814 38.9064H236.822C236.928 38.9064 237.014 38.9328 237.081 38.9856C237.149 39.0384 237.194 39.1008 237.218 39.1728L238.615 43.8672C238.653 44.04 238.689 44.208 238.723 44.3712C238.757 44.5296 238.785 44.6904 238.809 44.8536C238.848 44.6904 238.891 44.5296 238.939 44.3712C238.987 44.208 239.037 44.04 239.09 43.8672L240.631 39.144C240.655 39.072 240.696 39.012 240.753 38.964C240.816 38.916 240.893 38.892 240.984 38.892H241.538C241.634 38.892 241.713 38.916 241.776 38.964C241.838 39.012 241.881 39.072 241.905 39.144L243.41 43.8672C243.463 44.0352 243.509 44.2008 243.547 44.364C243.59 44.5272 243.631 44.688 243.669 44.8464C243.693 44.688 243.725 44.5224 243.763 44.3496C243.801 44.1768 243.842 44.016 243.885 43.8672L245.311 39.1728C245.335 39.096 245.381 39.0336 245.448 38.9856C245.515 38.9328 245.594 38.9064 245.685 38.9064H246.65L244.289 46.2H243.273C243.149 46.2 243.062 46.1184 243.014 45.9552L241.401 41.0088C241.363 40.8984 241.332 40.788 241.308 40.6776C241.284 40.5624 241.26 40.4496 241.236 40.3392C241.212 40.4496 241.188 40.5624 241.164 40.6776C241.14 40.7928 241.109 40.9056 241.07 41.016L239.436 45.9552C239.383 46.1184 239.285 46.2 239.141 46.2H238.176L235.814 38.9064ZM250.677 38.7912C251.114 38.7912 251.517 38.8656 251.886 39.0144C252.256 39.1584 252.575 39.3696 252.844 39.648C253.113 39.9216 253.322 40.2624 253.47 40.6704C253.624 41.0736 253.701 41.5344 253.701 42.0528C253.701 42.2544 253.679 42.3888 253.636 42.456C253.593 42.5232 253.511 42.5568 253.391 42.5568H248.538C248.548 43.0176 248.61 43.4184 248.726 43.7592C248.841 44.1 248.999 44.3856 249.201 44.616C249.402 44.8416 249.642 45.012 249.921 45.1272C250.199 45.2376 250.511 45.2928 250.857 45.2928C251.178 45.2928 251.454 45.2568 251.685 45.1848C251.92 45.108 252.122 45.0264 252.29 44.94C252.458 44.8536 252.597 44.7744 252.707 44.7024C252.822 44.6256 252.921 44.5872 253.002 44.5872C253.108 44.5872 253.19 44.628 253.247 44.7096L253.607 45.1776C253.449 45.3696 253.259 45.5376 253.038 45.6816C252.818 45.8208 252.58 45.936 252.326 46.0272C252.076 46.1184 251.817 46.1856 251.548 46.2288C251.279 46.2768 251.013 46.3008 250.749 46.3008C250.245 46.3008 249.779 46.2168 249.352 46.0488C248.93 45.876 248.562 45.6264 248.25 45.3C247.943 44.9688 247.703 44.5608 247.53 44.076C247.358 43.5912 247.271 43.0344 247.271 42.4056C247.271 41.8968 247.348 41.4216 247.502 40.98C247.66 40.5384 247.886 40.1568 248.178 39.8352C248.471 39.5088 248.829 39.2544 249.251 39.072C249.674 38.8848 250.149 38.7912 250.677 38.7912ZM250.706 39.7344C250.086 39.7344 249.599 39.9144 249.244 40.2744C248.889 40.6296 248.668 41.124 248.582 41.7576H252.549C252.549 41.46 252.508 41.1888 252.426 40.944C252.345 40.6944 252.225 40.4808 252.066 40.3032C251.908 40.1208 251.714 39.9816 251.483 39.8856C251.258 39.7848 250.998 39.7344 250.706 39.7344ZM255.341 46.2V38.9064H256.076C256.215 38.9064 256.311 38.9328 256.364 38.9856C256.416 39.0384 256.452 39.1296 256.472 39.2592L256.558 40.3968C256.808 39.888 257.115 39.492 257.48 39.2088C257.849 38.9208 258.281 38.7768 258.776 38.7768C258.977 38.7768 259.16 38.8008 259.323 38.8488C259.486 38.892 259.637 38.9544 259.776 39.036L259.611 39.9936C259.577 40.1136 259.503 40.1736 259.388 40.1736C259.32 40.1736 259.217 40.152 259.078 40.1088C258.939 40.0608 258.744 40.0368 258.495 40.0368C258.048 40.0368 257.674 40.1664 257.372 40.4256C257.074 40.6848 256.824 41.0616 256.623 41.556V46.2H255.341ZM264.036 38.7912C264.473 38.7912 264.876 38.8656 265.246 39.0144C265.615 39.1584 265.935 39.3696 266.203 39.648C266.472 39.9216 266.681 40.2624 266.83 40.6704C266.983 41.0736 267.06 41.5344 267.06 42.0528C267.06 42.2544 267.039 42.3888 266.995 42.456C266.952 42.5232 266.871 42.5568 266.751 42.5568H261.898C261.907 43.0176 261.97 43.4184 262.085 43.7592C262.2 44.1 262.359 44.3856 262.56 44.616C262.762 44.8416 263.002 45.012 263.28 45.1272C263.559 45.2376 263.871 45.2928 264.216 45.2928C264.538 45.2928 264.814 45.2568 265.044 45.1848C265.279 45.108 265.481 45.0264 265.649 44.94C265.817 44.8536 265.956 44.7744 266.067 44.7024C266.182 44.6256 266.28 44.5872 266.362 44.5872C266.467 44.5872 266.549 44.628 266.607 44.7096L266.967 45.1776C266.808 45.3696 266.619 45.5376 266.398 45.6816C266.177 45.8208 265.939 45.936 265.685 46.0272C265.435 46.1184 265.176 46.1856 264.907 46.2288C264.639 46.2768 264.372 46.3008 264.108 46.3008C263.604 46.3008 263.139 46.2168 262.711 46.0488C262.289 45.876 261.922 45.6264 261.61 45.3C261.303 44.9688 261.063 44.5608 260.89 44.076C260.717 43.5912 260.631 43.0344 260.631 42.4056C260.631 41.8968 260.707 41.4216 260.861 40.98C261.019 40.5384 261.245 40.1568 261.538 39.8352C261.831 39.5088 262.188 39.2544 262.611 39.072C263.033 38.8848 263.508 38.7912 264.036 38.7912ZM264.065 39.7344C263.446 39.7344 262.959 39.9144 262.603 40.2744C262.248 40.6296 262.027 41.124 261.941 41.7576H265.908C265.908 41.46 265.867 41.1888 265.786 40.944C265.704 40.6944 265.584 40.4808 265.426 40.3032C265.267 40.1208 265.073 39.9816 264.843 39.8856C264.617 39.7848 264.358 39.7344 264.065 39.7344ZM273.834 46.2C273.652 46.2 273.537 46.1112 273.489 45.9336L273.373 45.048C273.061 45.4272 272.704 45.732 272.301 45.9624C271.902 46.188 271.444 46.3008 270.925 46.3008C270.508 46.3008 270.129 46.2216 269.788 46.0632C269.447 45.9 269.157 45.6624 268.917 45.3504C268.677 45.0384 268.492 44.6496 268.362 44.184C268.233 43.7184 268.168 43.1832 268.168 42.5784C268.168 42.0408 268.24 41.5416 268.384 41.0808C268.528 40.6152 268.734 40.212 269.003 39.8712C269.277 39.5304 269.608 39.264 269.997 39.072C270.385 38.8752 270.827 38.7768 271.321 38.7768C271.768 38.7768 272.149 38.8536 272.466 39.0072C272.783 39.156 273.066 39.3672 273.316 39.6408V35.5944H274.597V46.2H273.834ZM271.35 45.264C271.768 45.264 272.133 45.168 272.445 44.976C272.761 44.784 273.052 44.5128 273.316 44.1624V40.6344C273.081 40.3176 272.821 40.0968 272.538 39.972C272.26 39.8424 271.95 39.7776 271.609 39.7776C270.928 39.7776 270.405 40.02 270.04 40.5048C269.675 40.9896 269.493 41.6808 269.493 42.5784C269.493 43.0536 269.533 43.4616 269.615 43.8024C269.697 44.1384 269.817 44.4168 269.975 44.6376C270.133 44.8536 270.328 45.012 270.558 45.1128C270.789 45.2136 271.053 45.264 271.35 45.264ZM279.73 46.2V35.8824H283.021C283.654 35.8824 284.199 35.9448 284.655 36.0696C285.116 36.1944 285.493 36.372 285.785 36.6024C286.083 36.8328 286.301 37.116 286.441 37.452C286.585 37.7832 286.657 38.1576 286.657 38.5752C286.657 38.8296 286.616 39.0744 286.534 39.3096C286.457 39.5448 286.337 39.7632 286.174 39.9648C286.016 40.1664 285.814 40.3464 285.569 40.5048C285.329 40.6632 285.046 40.7928 284.72 40.8936C285.473 41.0424 286.042 41.3136 286.426 41.7072C286.81 42.1008 287.002 42.6192 287.002 43.2624C287.002 43.6992 286.921 44.0976 286.757 44.4576C286.599 44.8176 286.364 45.1272 286.052 45.3864C285.745 45.6456 285.365 45.8472 284.914 45.9912C284.468 46.1304 283.957 46.2 283.381 46.2H279.73ZM281.127 41.4984V45.0912H283.359C283.757 45.0912 284.098 45.0456 284.381 44.9544C284.669 44.8632 284.905 44.736 285.087 44.5728C285.274 44.4048 285.411 44.208 285.497 43.9824C285.584 43.752 285.627 43.5 285.627 43.2264C285.627 42.6936 285.437 42.2736 285.058 41.9664C284.684 41.6544 284.115 41.4984 283.352 41.4984H281.127ZM281.127 40.5048H282.97C283.364 40.5048 283.705 40.4616 283.993 40.3752C284.281 40.2888 284.518 40.1688 284.705 40.0152C284.897 39.8616 285.039 39.6768 285.13 39.4608C285.221 39.24 285.267 39 285.267 38.7408C285.267 38.136 285.085 37.692 284.72 37.4088C284.355 37.1256 283.789 36.984 283.021 36.984H281.127V40.5048ZM290.99 48.3528C290.947 48.4488 290.892 48.5256 290.825 48.5832C290.762 48.6408 290.664 48.6696 290.53 48.6696H289.579L290.911 45.7752L287.902 38.9064H289.01C289.121 38.9064 289.207 38.9352 289.27 38.9928C289.332 39.0456 289.378 39.1056 289.406 39.1728L291.358 43.7664C291.401 43.872 291.437 43.9776 291.466 44.0832C291.499 44.1888 291.528 44.2968 291.552 44.4072C291.586 44.2968 291.619 44.1888 291.653 44.0832C291.686 43.9776 291.725 43.8696 291.768 43.7592L293.662 39.1728C293.69 39.096 293.738 39.0336 293.806 38.9856C293.878 38.9328 293.954 38.9064 294.036 38.9064H295.058L290.99 48.3528ZM304.492 37.4952C304.448 37.5672 304.403 37.6224 304.355 37.6608C304.307 37.6944 304.244 37.7112 304.168 37.7112C304.086 37.7112 303.99 37.6704 303.88 37.5888C303.774 37.5072 303.637 37.4184 303.469 37.3224C303.306 37.2216 303.107 37.1304 302.872 37.0488C302.641 36.9672 302.36 36.9264 302.029 36.9264C301.717 36.9264 301.441 36.9696 301.201 37.056C300.961 37.1376 300.76 37.2504 300.596 37.3944C300.438 37.5384 300.318 37.7088 300.236 37.9056C300.155 38.0976 300.114 38.3064 300.114 38.532C300.114 38.82 300.184 39.06 300.323 39.252C300.467 39.4392 300.654 39.6 300.884 39.7344C301.12 39.8688 301.384 39.9864 301.676 40.0872C301.974 40.1832 302.276 40.284 302.584 40.3896C302.896 40.4952 303.198 40.6152 303.491 40.7496C303.788 40.8792 304.052 41.0448 304.283 41.2464C304.518 41.448 304.705 41.6952 304.844 41.988C304.988 42.2808 305.06 42.6408 305.06 43.068C305.06 43.5192 304.984 43.944 304.83 44.3424C304.676 44.736 304.451 45.0792 304.153 45.372C303.86 45.6648 303.498 45.8952 303.066 46.0632C302.639 46.2312 302.152 46.3152 301.604 46.3152C300.937 46.3152 300.328 46.1952 299.776 45.9552C299.228 45.7104 298.76 45.3816 298.372 44.9688L298.775 44.3064C298.813 44.2536 298.859 44.2104 298.912 44.1768C298.969 44.1384 299.032 44.1192 299.099 44.1192C299.2 44.1192 299.315 44.1744 299.444 44.2848C299.574 44.3904 299.735 44.508 299.927 44.6376C300.124 44.7672 300.359 44.8872 300.632 44.9976C300.911 45.1032 301.249 45.156 301.648 45.156C301.979 45.156 302.274 45.1104 302.533 45.0192C302.792 44.928 303.011 44.8008 303.188 44.6376C303.371 44.4696 303.51 44.2704 303.606 44.04C303.702 43.8096 303.75 43.5528 303.75 43.2696C303.75 42.9576 303.678 42.7032 303.534 42.5064C303.395 42.3048 303.21 42.1368 302.98 42.0024C302.749 41.868 302.485 41.7552 302.188 41.664C301.895 41.568 301.592 41.472 301.28 41.376C300.973 41.2752 300.671 41.16 300.373 41.0304C300.08 40.9008 299.819 40.7328 299.588 40.5264C299.358 40.32 299.171 40.0632 299.027 39.756C298.888 39.444 298.818 39.06 298.818 38.604C298.818 38.2392 298.888 37.8864 299.027 37.5456C299.171 37.2048 299.377 36.9024 299.646 36.6384C299.915 36.3744 300.246 36.1632 300.64 36.0048C301.038 35.8464 301.494 35.7671 302.008 35.7671C302.584 35.7671 303.109 35.8584 303.584 36.0408C304.06 36.2232 304.475 36.4872 304.83 36.8327L304.492 37.4952ZM311.998 46.2H311.429C311.304 46.2 311.204 46.1808 311.127 46.1424C311.05 46.104 311 46.0224 310.976 45.8976L310.832 45.2208C310.64 45.3936 310.452 45.5496 310.27 45.6888C310.088 45.8232 309.896 45.9384 309.694 46.0344C309.492 46.1256 309.276 46.1952 309.046 46.2432C308.82 46.2912 308.568 46.3152 308.29 46.3152C308.007 46.3152 307.74 46.2768 307.491 46.2C307.246 46.1184 307.032 45.9984 306.85 45.84C306.668 45.6816 306.521 45.4824 306.411 45.2424C306.305 44.9976 306.252 44.7096 306.252 44.3784C306.252 44.0904 306.332 43.8144 306.49 43.5504C306.648 43.2816 306.903 43.044 307.253 42.8376C307.608 42.6312 308.072 42.4632 308.643 42.3336C309.214 42.1992 309.912 42.1224 310.738 42.1032V41.5344C310.738 40.968 310.616 40.5408 310.371 40.2528C310.131 39.96 309.773 39.8136 309.298 39.8136C308.986 39.8136 308.722 39.8544 308.506 39.936C308.295 40.0128 308.11 40.1016 307.952 40.2024C307.798 40.2984 307.664 40.3872 307.548 40.4688C307.438 40.5456 307.328 40.584 307.217 40.584C307.131 40.584 307.054 40.5624 306.987 40.5192C306.924 40.4712 306.874 40.4136 306.836 40.3464L306.605 39.936C307.008 39.5472 307.443 39.2568 307.908 39.0648C308.374 38.8728 308.89 38.7768 309.456 38.7768C309.864 38.7768 310.227 38.844 310.544 38.9784C310.86 39.1128 311.127 39.3 311.343 39.54C311.559 39.78 311.722 40.0704 311.832 40.4112C311.943 40.752 311.998 41.1264 311.998 41.5344V46.2ZM308.672 45.4152C308.897 45.4152 309.104 45.3936 309.291 45.3504C309.478 45.3024 309.653 45.2376 309.816 45.156C309.984 45.0696 310.143 44.9664 310.292 44.8464C310.445 44.7264 310.594 44.5896 310.738 44.436V42.9168C310.148 42.936 309.646 42.984 309.233 43.0608C308.82 43.1328 308.484 43.2288 308.225 43.3488C307.966 43.4688 307.776 43.6104 307.656 43.7736C307.541 43.9368 307.484 44.1192 307.484 44.3208C307.484 44.5128 307.515 44.6784 307.577 44.8176C307.64 44.9568 307.724 45.072 307.829 45.1632C307.935 45.2496 308.06 45.3144 308.204 45.3576C308.348 45.396 308.504 45.4152 308.672 45.4152ZM316.15 46.3152C315.574 46.3152 315.13 46.1544 314.818 45.8328C314.511 45.5112 314.357 45.048 314.357 44.4432V39.9792H313.479C313.402 39.9792 313.337 39.9576 313.284 39.9144C313.232 39.8664 313.205 39.7944 313.205 39.6984V39.1872L314.4 39.036L314.696 36.7824C314.705 36.7104 314.736 36.6528 314.789 36.6096C314.842 36.5616 314.909 36.5376 314.991 36.5376H315.639V39.0504H317.727V39.9792H315.639V44.3568C315.639 44.664 315.713 44.892 315.862 45.0408C316.011 45.1896 316.203 45.264 316.438 45.264C316.572 45.264 316.688 45.2472 316.784 45.2136C316.884 45.1752 316.971 45.1344 317.043 45.0912C317.115 45.048 317.175 45.0096 317.223 44.976C317.276 44.9376 317.321 44.9184 317.36 44.9184C317.427 44.9184 317.487 44.9592 317.54 45.0408L317.914 45.6528C317.693 45.8592 317.427 46.0224 317.115 46.1424C316.803 46.2576 316.481 46.3152 316.15 46.3152ZM321.522 46.3152C320.946 46.3152 320.502 46.1544 320.19 45.8328C319.883 45.5112 319.729 45.048 319.729 44.4432V39.9792H318.851C318.774 39.9792 318.709 39.9576 318.656 39.9144C318.603 39.8664 318.577 39.7944 318.577 39.6984V39.1872L319.772 39.036L320.067 36.7824C320.077 36.7104 320.108 36.6528 320.161 36.6096C320.214 36.5616 320.281 36.5376 320.363 36.5376H321.011V39.0504H323.099V39.9792H321.011V44.3568C321.011 44.664 321.085 44.892 321.234 45.0408C321.383 45.1896 321.575 45.264 321.81 45.264C321.944 45.264 322.059 45.2472 322.155 45.2136C322.256 45.1752 322.343 45.1344 322.415 45.0912C322.487 45.048 322.547 45.0096 322.595 44.976C322.647 44.9376 322.693 44.9184 322.731 44.9184C322.799 44.9184 322.859 44.9592 322.911 45.0408L323.286 45.6528C323.065 45.8592 322.799 46.0224 322.487 46.1424C322.175 46.2576 321.853 46.3152 321.522 46.3152ZM328.859 40.1088C328.802 40.2144 328.713 40.2672 328.593 40.2672C328.521 40.2672 328.439 40.2408 328.348 40.188C328.257 40.1352 328.144 40.0776 328.01 40.0152C327.88 39.948 327.724 39.888 327.542 39.8352C327.359 39.7776 327.143 39.7488 326.894 39.7488C326.678 39.7488 326.483 39.7776 326.311 39.8352C326.138 39.888 325.989 39.9624 325.864 40.0584C325.744 40.1544 325.651 40.2672 325.583 40.3968C325.521 40.5216 325.49 40.6584 325.49 40.8072C325.49 40.9944 325.543 41.1504 325.648 41.2752C325.759 41.4 325.903 41.508 326.08 41.5992C326.258 41.6904 326.459 41.772 326.685 41.844C326.911 41.9112 327.141 41.9856 327.376 42.0672C327.616 42.144 327.849 42.2304 328.075 42.3264C328.3 42.4224 328.502 42.5424 328.679 42.6864C328.857 42.8304 328.999 43.008 329.104 43.2192C329.215 43.4256 329.27 43.6752 329.27 43.968C329.27 44.304 329.21 44.616 329.09 44.904C328.97 45.1872 328.792 45.4344 328.557 45.6456C328.322 45.852 328.034 46.0152 327.693 46.1352C327.352 46.2552 326.959 46.3152 326.512 46.3152C326.003 46.3152 325.543 46.2336 325.13 46.0704C324.717 45.9024 324.367 45.6888 324.079 45.4296L324.381 44.94C324.419 44.8776 324.465 44.8296 324.518 44.796C324.571 44.7624 324.64 44.7456 324.727 44.7456C324.813 44.7456 324.904 44.7792 325 44.8464C325.096 44.9136 325.211 44.988 325.346 45.0696C325.485 45.1512 325.651 45.2256 325.843 45.2928C326.039 45.36 326.284 45.3936 326.577 45.3936C326.827 45.3936 327.045 45.3624 327.232 45.3C327.419 45.2328 327.575 45.144 327.7 45.0336C327.825 44.9232 327.916 44.796 327.974 44.652C328.036 44.508 328.067 44.3544 328.067 44.1912C328.067 43.9896 328.012 43.824 327.902 43.6944C327.796 43.56 327.655 43.4472 327.477 43.356C327.299 43.26 327.095 43.1784 326.865 43.1112C326.639 43.0392 326.407 42.9648 326.167 42.888C325.931 42.8112 325.699 42.7248 325.468 42.6288C325.243 42.528 325.041 42.4032 324.863 42.2544C324.686 42.1056 324.542 41.9232 324.431 41.7072C324.326 41.4864 324.273 41.22 324.273 40.908C324.273 40.6296 324.331 40.3632 324.446 40.1088C324.561 39.8496 324.729 39.624 324.95 39.432C325.171 39.2352 325.442 39.0792 325.763 38.964C326.085 38.8488 326.452 38.7912 326.865 38.7912C327.345 38.7912 327.775 38.868 328.154 39.0216C328.538 39.1704 328.869 39.3768 329.147 39.6408L328.859 40.1088ZM341.185 44.0688C341.262 44.0688 341.331 44.1 341.394 44.1624L341.941 44.76C341.519 45.2496 341.005 45.6312 340.4 45.9048C339.8 46.1784 339.075 46.3152 338.226 46.3152C337.482 46.3152 336.807 46.188 336.203 45.9336C335.598 45.6744 335.082 45.3144 334.655 44.8536C334.227 44.388 333.896 43.8312 333.661 43.1832C333.426 42.5352 333.308 41.8224 333.308 41.0448C333.308 40.2672 333.433 39.5544 333.683 38.9064C333.937 38.2584 334.292 37.7016 334.748 37.236C335.204 36.7704 335.749 36.4104 336.383 36.156C337.021 35.8967 337.724 35.7671 338.492 35.7671C339.251 35.7671 339.903 35.8847 340.451 36.12C341.003 36.3552 341.492 36.6744 341.919 37.0776L341.466 37.7184C341.432 37.7664 341.394 37.8072 341.351 37.8408C341.307 37.8696 341.245 37.884 341.163 37.884C341.101 37.884 341.034 37.8624 340.962 37.8192C340.895 37.7712 340.813 37.7136 340.717 37.6464C340.621 37.5792 340.508 37.5072 340.379 37.4304C340.249 37.3536 340.095 37.2816 339.918 37.2144C339.74 37.1472 339.534 37.092 339.299 37.0488C339.063 37.0008 338.792 36.9768 338.485 36.9768C337.933 36.9768 337.427 37.0728 336.966 37.2648C336.51 37.452 336.116 37.7208 335.785 38.0712C335.454 38.4216 335.195 38.8488 335.007 39.3528C334.825 39.8568 334.734 40.4208 334.734 41.0448C334.734 41.688 334.825 42.2616 335.007 42.7656C335.195 43.2696 335.447 43.6968 335.763 44.0472C336.085 44.3928 336.464 44.6568 336.901 44.8392C337.338 45.0216 337.808 45.1128 338.312 45.1128C338.619 45.1128 338.895 45.096 339.14 45.0624C339.385 45.024 339.611 44.9664 339.817 44.8896C340.028 44.8128 340.223 44.7168 340.4 44.6016C340.583 44.4816 340.765 44.34 340.947 44.1768C341.029 44.1048 341.108 44.0688 341.185 44.0688ZM345.708 48.3528C345.664 48.4488 345.609 48.5256 345.542 48.5832C345.48 48.6408 345.381 48.6696 345.247 48.6696H344.296L345.628 45.7752L342.619 38.9064H343.728C343.838 38.9064 343.924 38.9352 343.987 38.9928C344.049 39.0456 344.095 39.1056 344.124 39.1728L346.075 43.7664C346.118 43.872 346.154 43.9776 346.183 44.0832C346.216 44.1888 346.245 44.2968 346.269 44.4072C346.303 44.2968 346.336 44.1888 346.37 44.0832C346.404 43.9776 346.442 43.8696 346.485 43.7592L348.379 39.1728C348.408 39.096 348.456 39.0336 348.523 38.9856C348.595 38.9328 348.672 38.9064 348.753 38.9064H349.776L345.708 48.3528ZM350.981 46.2V35.5944H352.27V39.9576C352.572 39.6072 352.918 39.3264 353.307 39.1152C353.7 38.8992 354.149 38.7912 354.653 38.7912C355.076 38.7912 355.457 38.8704 355.798 39.0288C356.139 39.1872 356.429 39.4248 356.669 39.7416C356.909 40.0536 357.094 40.4424 357.224 40.908C357.353 41.3688 357.418 41.9016 357.418 42.5064C357.418 43.044 357.346 43.5456 357.202 44.0112C357.058 44.472 356.849 44.8728 356.576 45.2136C356.307 45.5496 355.976 45.816 355.582 46.0128C355.193 46.2048 354.754 46.3008 354.264 46.3008C353.794 46.3008 353.393 46.2096 353.062 46.0272C352.736 45.8448 352.45 45.5904 352.205 45.264L352.14 45.9264C352.102 46.1088 351.992 46.2 351.809 46.2H350.981ZM354.236 39.8136C353.818 39.8136 353.451 39.9096 353.134 40.1016C352.822 40.2936 352.534 40.5648 352.27 40.9152V44.4432C352.5 44.76 352.755 44.9832 353.033 45.1128C353.316 45.2424 353.631 45.3072 353.976 45.3072C354.658 45.3072 355.181 45.0648 355.546 44.58C355.911 44.0952 356.093 43.404 356.093 42.5064C356.093 42.0312 356.05 41.6232 355.964 41.2824C355.882 40.9416 355.762 40.6632 355.604 40.4472C355.445 40.2264 355.251 40.0656 355.02 39.9648C354.79 39.864 354.528 39.8136 354.236 39.8136ZM361.869 38.7912C362.306 38.7912 362.709 38.8656 363.079 39.0144C363.448 39.1584 363.767 39.3696 364.036 39.648C364.305 39.9216 364.514 40.2624 364.663 40.6704C364.816 41.0736 364.893 41.5344 364.893 42.0528C364.893 42.2544 364.871 42.3888 364.828 42.456C364.785 42.5232 364.703 42.5568 364.583 42.5568H359.731C359.74 43.0176 359.803 43.4184 359.918 43.7592C360.033 44.1 360.191 44.3856 360.393 44.616C360.595 44.8416 360.835 45.012 361.113 45.1272C361.391 45.2376 361.703 45.2928 362.049 45.2928C362.371 45.2928 362.647 45.2568 362.877 45.1848C363.112 45.108 363.314 45.0264 363.482 44.94C363.65 44.8536 363.789 44.7744 363.899 44.7024C364.015 44.6256 364.113 44.5872 364.195 44.5872C364.3 44.5872 364.382 44.628 364.439 44.7096L364.799 45.1776C364.641 45.3696 364.451 45.5376 364.231 45.6816C364.01 45.8208 363.772 45.936 363.518 46.0272C363.268 46.1184 363.009 46.1856 362.74 46.2288C362.471 46.2768 362.205 46.3008 361.941 46.3008C361.437 46.3008 360.971 46.2168 360.544 46.0488C360.122 45.876 359.755 45.6264 359.443 45.3C359.135 44.9688 358.895 44.5608 358.723 44.076C358.55 43.5912 358.463 43.0344 358.463 42.4056C358.463 41.8968 358.54 41.4216 358.694 40.98C358.852 40.5384 359.078 40.1568 359.371 39.8352C359.663 39.5088 360.021 39.2544 360.443 39.072C360.866 38.8848 361.341 38.7912 361.869 38.7912ZM361.898 39.7344C361.279 39.7344 360.791 39.9144 360.436 40.2744C360.081 40.6296 359.86 41.124 359.774 41.7576H363.741C363.741 41.46 363.7 41.1888 363.619 40.944C363.537 40.6944 363.417 40.4808 363.259 40.3032C363.1 40.1208 362.906 39.9816 362.675 39.8856C362.45 39.7848 362.191 39.7344 361.898 39.7344ZM366.533 46.2V38.9064H367.268C367.407 38.9064 367.503 38.9328 367.556 38.9856C367.609 39.0384 367.645 39.1296 367.664 39.2592L367.75 40.3968C368 39.888 368.307 39.492 368.672 39.2088C369.041 38.9208 369.473 38.7768 369.968 38.7768C370.169 38.7768 370.352 38.8008 370.515 38.8488C370.678 38.892 370.829 38.9544 370.969 39.036L370.803 39.9936C370.769 40.1136 370.695 40.1736 370.58 40.1736C370.513 40.1736 370.409 40.152 370.27 40.1088C370.131 40.0608 369.937 40.0368 369.687 40.0368C369.241 40.0368 368.866 40.1664 368.564 40.4256C368.266 40.6848 368.017 41.0616 367.815 41.556V46.2H366.533ZM382.354 35.8824V37.056H379.021V46.2H377.624V37.056H374.276V35.8824H382.354ZM384.988 38.7912C385.425 38.7912 385.828 38.8656 386.197 39.0144C386.567 39.1584 386.886 39.3696 387.155 39.648C387.424 39.9216 387.633 40.2624 387.781 40.6704C387.935 41.0736 388.012 41.5344 388.012 42.0528C388.012 42.2544 387.99 42.3888 387.947 42.456C387.904 42.5232 387.822 42.5568 387.702 42.5568H382.849C382.859 43.0176 382.921 43.4184 383.037 43.7592C383.152 44.1 383.31 44.3856 383.512 44.616C383.713 44.8416 383.953 45.012 384.232 45.1272C384.51 45.2376 384.822 45.2928 385.168 45.2928C385.489 45.2928 385.765 45.2568 385.996 45.1848C386.231 45.108 386.433 45.0264 386.601 44.94C386.769 44.8536 386.908 44.7744 387.018 44.7024C387.133 44.6256 387.232 44.5872 387.313 44.5872C387.419 44.5872 387.501 44.628 387.558 44.7096L387.918 45.1776C387.76 45.3696 387.57 45.5376 387.349 45.6816C387.129 45.8208 386.891 45.936 386.637 46.0272C386.387 46.1184 386.128 46.1856 385.859 46.2288C385.59 46.2768 385.324 46.3008 385.06 46.3008C384.556 46.3008 384.09 46.2168 383.663 46.0488C383.241 45.876 382.873 45.6264 382.561 45.3C382.254 44.9688 382.014 44.5608 381.841 44.076C381.669 43.5912 381.582 43.0344 381.582 42.4056C381.582 41.8968 381.659 41.4216 381.813 40.98C381.971 40.5384 382.197 40.1568 382.489 39.8352C382.782 39.5088 383.14 39.2544 383.562 39.072C383.985 38.8848 384.46 38.7912 384.988 38.7912ZM385.017 39.7344C384.397 39.7344 383.91 39.9144 383.555 40.2744C383.2 40.6296 382.979 41.124 382.893 41.7576H386.86C386.86 41.46 386.819 41.1888 386.737 40.944C386.656 40.6944 386.536 40.4808 386.377 40.3032C386.219 40.1208 386.025 39.9816 385.794 39.8856C385.569 39.7848 385.309 39.7344 385.017 39.7344ZM394.627 40.2024C394.589 40.2552 394.55 40.296 394.512 40.3248C394.474 40.3536 394.418 40.368 394.346 40.368C394.274 40.368 394.195 40.3392 394.109 40.2816C394.027 40.2192 393.922 40.152 393.792 40.08C393.662 40.008 393.504 39.9432 393.317 39.8856C393.134 39.8232 392.909 39.792 392.64 39.792C392.285 39.792 391.97 39.8568 391.697 39.9864C391.423 40.1112 391.193 40.2936 391.006 40.5336C390.823 40.7736 390.684 41.064 390.588 41.4048C390.497 41.7456 390.451 42.1272 390.451 42.5496C390.451 42.9912 390.502 43.3848 390.602 43.7304C390.703 44.0712 390.845 44.3592 391.027 44.5944C391.21 44.8248 391.43 45.0024 391.69 45.1272C391.954 45.2472 392.249 45.3072 392.575 45.3072C392.887 45.3072 393.144 45.2712 393.346 45.1992C393.547 45.1224 393.715 45.0384 393.85 44.9472C393.984 44.856 394.094 44.7744 394.181 44.7024C394.267 44.6256 394.354 44.5872 394.44 44.5872C394.55 44.5872 394.632 44.628 394.685 44.7096L395.045 45.1776C394.728 45.5664 394.332 45.852 393.857 46.0344C393.382 46.212 392.88 46.3008 392.352 46.3008C391.896 46.3008 391.471 46.2168 391.078 46.0488C390.689 45.8808 390.35 45.6384 390.062 45.3216C389.774 45 389.546 44.6064 389.378 44.1408C389.215 43.6752 389.134 43.1448 389.134 42.5496C389.134 42.0072 389.208 41.5056 389.357 41.0448C389.51 40.584 389.731 40.188 390.019 39.8568C390.312 39.5208 390.672 39.2592 391.099 39.072C391.526 38.8848 392.016 38.7912 392.568 38.7912C393.077 38.7912 393.528 38.8752 393.922 39.0432C394.315 39.2064 394.663 39.4392 394.966 39.7416L394.627 40.2024ZM396.374 46.2V35.5944H397.656V39.8856C397.968 39.5544 398.313 39.2904 398.692 39.0936C399.072 38.892 399.508 38.7912 400.003 38.7912C400.401 38.7912 400.752 38.8584 401.054 38.9928C401.361 39.1224 401.616 39.3096 401.817 39.5544C402.024 39.7944 402.18 40.0848 402.285 40.4256C402.391 40.7664 402.444 41.1432 402.444 41.556V46.2H401.162V41.556C401.162 41.004 401.035 40.5768 400.78 40.2744C400.531 39.9672 400.147 39.8136 399.628 39.8136C399.249 39.8136 398.894 39.9048 398.563 40.0872C398.236 40.2696 397.934 40.5168 397.656 40.8288V46.2H396.374Z" fill="black"/>
</g>
<defs>
<clipPath id="clip0_2988_273">
<rect width="402" height="49.2" fill="white" transform="translate(0 0.400024)"/>
</clipPath>
</defs>
</svg>
