<svg width="402" height="60" viewBox="0 0 402 60" fill="none" xmlns="http://www.w3.org/2000/svg">
<g clip-path="url(#clip0_3033_25378)">
<path d="M0 25.0093V0.497346H10.6062C12.0695 0.426423 13.5317 0.658304 14.9007 1.17818C16.2698 1.69806 17.5161 2.4947 18.5612 3.51815C20.6961 5.6464 21.7635 8.67873 21.7635 12.6151C21.9318 15.8004 20.9548 18.9411 19.0082 21.4726C17.9722 22.6635 16.6758 23.6015 15.219 24.2144C13.7621 24.8274 12.1836 25.0988 10.605 25.008L0 25.0093ZM5.4065 5.02916V20.4775H10.2273C11.0091 20.5093 11.7891 20.3793 12.518 20.0957C13.2469 19.812 13.9089 19.3808 14.4624 18.8294C15.1393 18.0509 15.6551 17.1468 15.9803 16.1689C16.3054 15.191 16.4335 14.1585 16.357 13.1311C16.5091 11.0509 15.977 8.97814 14.8413 7.22657C14.1492 6.45015 13.2837 5.84681 12.3146 5.46511C11.3456 5.08342 10.3002 4.93403 9.26264 5.02916H5.4065Z" fill="white"/>
<path d="M29.685 12.7151H24.7949C24.8135 11.7625 25.0805 10.831 25.5697 10.0124C26.0589 9.19384 26.7533 8.51626 27.5848 8.04634C29.2941 7.1314 31.219 6.69267 33.1573 6.77614C38.3689 6.77614 40.9748 8.45835 40.9748 11.8227V21.0578C40.8595 22.4051 41.0719 23.7601 41.5939 25.0081H36.6406C36.4507 24.4533 36.3349 23.876 36.2964 23.291C35.5064 24.0535 34.5653 24.643 33.5334 25.0214C32.5014 25.3998 31.4014 25.5588 30.3042 25.4884C28.7608 25.5658 27.2386 25.1044 25.9998 24.1835C25.4117 23.698 24.9464 23.0816 24.6414 22.3838C24.3363 21.686 24.2002 20.9264 24.2438 20.1665C24.1916 19.3869 24.3379 18.6068 24.6692 17.8987C25.0004 17.1906 25.5059 16.5774 26.1385 16.1161C27.415 15.3768 28.8361 14.9201 30.3054 14.7768C32.9471 14.4105 34.2903 14.2159 34.3349 14.1928C35.5055 13.8957 36.0909 13.3123 36.0909 12.4424C36.1319 12.0539 36.0633 11.6616 35.8929 11.3098C35.7225 10.958 35.4569 10.6606 35.1262 10.4511C34.4386 10.1291 33.6799 9.98758 32.922 10.04C30.925 10.0384 29.846 10.9301 29.685 12.7151ZM36.0909 18.1395V16.3161C35.3218 16.7894 34.4451 17.0612 33.5424 17.1062C32.5352 17.2219 31.5427 17.4404 30.5803 17.7581C30.1386 17.927 29.7613 18.23 29.5017 18.6243C29.2422 19.0186 29.1135 19.4842 29.1339 19.9554C29.1339 21.4664 30.1324 22.2216 32.1294 22.2207C34.7671 22.2232 36.0859 20.8628 36.0859 18.1395H36.0909Z" fill="white"/>
<path d="M50.9655 1.93604V7.26155H54.5468V10.523H50.9655V19.3113C50.8779 19.5976 50.8701 19.9023 50.9428 20.1927C51.0155 20.4832 51.1661 20.7484 51.3784 20.9601C51.5908 21.1717 51.8568 21.3219 52.1481 21.3944C52.4395 21.4669 52.7451 21.4591 53.0323 21.3718C53.5408 21.376 54.0485 21.33 54.548 21.2346V25.0455C53.6012 25.1767 52.6457 25.2341 51.69 25.2172C47.9478 25.2172 46.0766 23.8098 46.0766 20.9952V10.5242H43.1146V7.26155H46.0766V1.93965L50.9655 1.93604Z" fill="white"/>
<path d="M61.5729 12.7154H56.6828C56.7014 11.7627 56.9684 10.8313 57.4576 10.0127C57.9468 9.19407 58.6412 8.5165 59.4727 8.04658C61.1838 7.13061 63.1111 6.69185 65.0514 6.77638C70.2622 6.77638 72.868 8.45858 72.8689 11.823V21.0581C72.7535 22.4053 72.9659 23.7604 73.488 25.0084H68.5347C68.3448 24.4536 68.229 23.8762 68.1905 23.2912C67.4005 24.0537 66.4594 24.6432 65.4275 25.0216C64.3955 25.4 63.2955 25.5591 62.1983 25.4886C60.6549 25.566 59.1328 25.1045 57.8938 24.1838C57.3058 23.6983 56.8405 23.0818 56.5355 22.384C56.2305 21.6862 56.0943 20.9266 56.1379 20.1667C56.0857 19.3871 56.2321 18.6071 56.5633 17.8989C56.8946 17.1908 57.3999 16.5776 58.0325 16.1164C59.309 15.377 60.7303 14.9203 62.1995 14.777C64.8413 14.4108 66.1844 14.2161 66.229 14.1931C67.3996 13.896 67.985 13.3125 67.985 12.4426C68.026 12.0541 67.9575 11.6618 67.787 11.31C67.6166 10.9582 67.351 10.6608 67.0203 10.4513C66.3327 10.1293 65.574 9.98781 64.8161 10.0403C62.8141 10.0386 61.7331 10.9303 61.5729 12.7154ZM67.9788 18.1397V16.3163C67.2097 16.7897 66.333 17.0615 65.4303 17.1064C64.4231 17.2222 63.4306 17.4407 62.4682 17.7583C62.0265 17.9272 61.6492 18.2302 61.3896 18.6245C61.1301 19.0188 61.0014 19.4844 61.0218 19.9556C61.0218 21.4666 62.0208 22.2218 64.0186 22.221C66.6579 22.2234 67.9775 20.863 67.9775 18.1397H67.9788Z" fill="white"/>
<path d="M75.6167 16.8693H80.8511C80.8129 17.5439 80.944 18.2173 81.2327 18.8287C81.5214 19.44 81.9584 19.9698 82.5043 20.3702C83.6241 21.1083 84.9516 21.4692 86.2922 21.3999C87.3547 21.4341 88.4116 21.2347 89.388 20.816C89.8905 20.6283 90.3225 20.2903 90.6247 19.8482C90.9269 19.4062 91.0845 18.8819 91.0759 18.347C91.0759 16.948 89.8132 15.8954 87.2879 15.1893C82.9257 13.9548 80.5729 13.2454 80.2294 13.061C79.0862 12.6056 78.1103 11.812 77.433 10.787C76.7558 9.76208 76.4098 8.55494 76.4415 7.32801C76.4123 6.22415 76.6657 5.13109 77.1779 4.15199C77.6901 3.17289 78.4442 2.34011 79.3689 1.73215C81.2162 0.488407 83.4076 -0.147866 85.636 -0.0874741C88.0538 -0.19948 90.4472 0.43605 92.4888 1.73215C93.4656 2.40705 94.2535 3.31925 94.7777 4.38255C95.3019 5.44585 95.5451 6.62505 95.4843 7.80827H90.25C90.1121 5.33931 88.4936 4.10482 85.3945 4.10482C84.5157 4.07728 83.6462 4.29078 82.8807 4.72207C82.5026 4.94033 82.1908 5.25668 81.9786 5.63753C81.7664 6.01838 81.6618 6.44941 81.6758 6.88482C81.6684 7.30965 81.7937 7.7262 82.0345 8.07681C82.2752 8.42742 82.6195 8.69465 83.0194 8.84143C84.979 9.54682 86.9801 10.1315 89.0117 10.592C90.5255 10.9088 91.9787 11.4651 93.3161 12.24C94.2619 12.8057 95.0385 13.6135 95.5653 14.5795C96.092 15.5456 96.3497 16.6345 96.3115 17.7334C96.3462 18.8104 96.1277 19.8805 95.6734 20.8582C95.219 21.8359 94.5415 22.694 93.695 23.3639C91.4947 24.9657 88.8041 25.7547 86.0842 25.5959C83.4852 25.7034 80.9213 24.967 78.7781 23.4973C77.739 22.7426 76.9055 21.741 76.3534 20.5835C75.8013 19.426 75.5481 18.1492 75.6167 16.8693Z" fill="white"/>
<path d="M99.0049 31.2538V7.25653H103.654V9.52191H103.723C104.271 8.62474 105.055 7.89432 105.99 7.41009C106.925 6.92586 107.975 6.70619 109.027 6.77507C110.207 6.71845 111.384 6.95186 112.452 7.4547C113.521 7.95753 114.45 8.71446 115.156 9.65889C116.536 11.6017 117.226 13.9473 117.119 16.3251C117.202 18.6024 116.511 20.8408 115.156 22.6766C114.485 23.5869 113.601 24.3194 112.58 24.8101C111.56 25.3008 110.434 25.5345 109.302 25.4911C108.255 25.5495 107.21 25.333 106.274 24.8631C105.337 24.3933 104.54 23.6865 103.963 22.8136H103.895V31.2586L99.0049 31.2538ZM107.993 21.8123C110.817 21.8123 112.229 19.9355 112.229 16.1818C112.288 14.8124 111.954 13.4547 111.264 12.2686C110.931 11.6945 110.447 11.2218 109.865 10.9012C109.282 10.5806 108.623 10.4243 107.958 10.449C107.295 10.4116 106.635 10.5587 106.051 10.8739C105.467 11.1892 104.983 11.66 104.652 12.2339C103.982 13.44 103.66 14.8073 103.722 16.1844C103.658 17.5437 103.994 18.8918 104.686 20.0643C105.027 20.6265 105.515 21.0859 106.097 21.3937C106.679 21.7015 107.335 21.8462 107.993 21.8123Z" fill="white"/>
<path d="M124.729 12.7154H119.838C119.857 11.7627 120.124 10.8313 120.613 10.0127C121.102 9.19407 121.797 8.51642 122.628 8.04659C124.339 7.13056 126.267 6.6918 128.207 6.77639C133.419 6.77639 136.024 8.4586 136.024 11.823V21.0581C135.909 22.4053 136.122 23.7604 136.644 25.0084H131.69C131.5 24.4536 131.384 23.8762 131.346 23.2912C130.556 24.0537 129.615 24.6432 128.583 25.0216C127.551 25.4001 126.451 25.5591 125.354 25.4886C123.811 25.566 122.288 25.1045 121.049 24.1838C120.461 23.6982 119.996 23.0817 119.691 22.3839C119.386 21.6861 119.25 20.9266 119.294 20.1667C119.241 19.3871 119.387 18.6071 119.719 17.8989C120.05 17.1908 120.555 16.5775 121.188 16.1164C122.465 15.3771 123.886 14.9203 125.355 14.777C127.997 14.4108 129.34 14.2161 129.385 14.1931C130.555 13.896 131.141 13.3125 131.141 12.4426C131.182 12.0541 131.113 11.6618 130.943 11.31C130.772 10.9582 130.507 10.6609 130.176 10.4514C129.488 10.1293 128.73 9.98783 127.972 10.0403C125.971 10.0386 124.89 10.9303 124.729 12.7154ZM131.133 18.1398V16.3164C130.364 16.7897 129.487 17.0615 128.585 17.1064C127.578 17.2222 126.585 17.4408 125.623 17.7583C125.181 17.9272 124.804 18.2302 124.544 18.6245C124.284 19.0189 124.156 19.4844 124.176 19.9556C124.176 21.4666 125.175 22.2218 127.172 22.221C129.81 22.2235 131.129 20.863 131.129 18.1398H131.133Z" fill="white"/>
<path d="M156.72 13.5053H151.933C151.907 13.0645 151.791 12.6337 151.593 12.2387C151.394 11.8438 151.118 11.4929 150.78 11.2074C150.442 10.9219 150.05 10.7075 149.626 10.5773C149.203 10.4472 148.758 10.4039 148.317 10.45C147.65 10.4323 146.991 10.5994 146.413 10.9328C145.836 11.2663 145.362 11.7531 145.046 12.3388C144.415 13.5324 144.106 14.8691 144.15 16.2175C144.105 17.5224 144.414 18.8153 145.046 19.9592C145.344 20.5347 145.8 21.0141 146.361 21.3418C146.921 21.6696 147.564 21.8322 148.213 21.811C150.463 21.811 151.76 20.6093 152.105 18.2062H156.823C156.654 20.2909 155.671 22.2262 154.085 23.5961C152.428 24.8994 150.357 25.5692 148.248 25.4847C147.048 25.5315 145.852 25.3299 144.735 24.8926C143.618 24.4554 142.604 23.7919 141.757 22.9442C140.92 22.0743 140.268 21.0454 139.839 19.9187C139.41 18.792 139.213 17.5907 139.26 16.3866C139.143 13.8792 139.993 11.4224 141.636 9.52038C142.487 8.60133 143.528 7.87918 144.689 7.40464C145.849 6.9301 147.099 6.71471 148.352 6.77369C150.363 6.70245 152.344 7.28055 154 8.42182C154.813 9.00551 155.481 9.7672 155.953 10.6485C156.424 11.5297 156.687 12.507 156.72 13.5053Z" fill="white"/>
<path d="M176.452 17.3149H163.607C163.745 20.3131 165.203 21.8121 167.981 21.8121C168.887 21.8224 169.775 21.5591 170.529 21.0567C171.15 20.7314 171.62 20.1773 171.838 19.5122H176.142C175.674 21.3229 174.584 22.9126 173.061 24.0042C171.538 25.0958 169.679 25.6203 167.808 25.486C166.583 25.5447 165.358 25.3439 164.216 24.8971C163.073 24.4503 162.039 23.7674 161.18 22.8935C159.579 21.0113 158.706 18.6205 158.718 16.1528C158.731 13.6851 159.629 11.3033 161.249 9.43771C162.092 8.55681 163.113 7.86419 164.244 7.40561C165.376 6.94703 166.592 6.73289 167.812 6.77737C169.112 6.71752 170.407 6.98106 171.579 7.5444C172.751 8.10774 173.765 8.9532 174.528 10.0043C176.038 12.1277 176.721 14.726 176.452 17.3149ZM163.607 14.2287H171.562C171.102 11.7112 169.805 10.4523 167.67 10.4523C167.071 10.4172 166.472 10.5233 165.921 10.762C165.371 11.0007 164.885 11.3654 164.502 11.8264C163.953 12.5096 163.639 13.3511 163.607 14.2262V14.2287Z" fill="white"/>
<path d="M186.913 25.0056L196.033 4.80078H199.74L208.89 25.0056H204.952L197.106 6.79205H198.612L190.794 25.0056H186.913ZM191.111 20.3295L192.124 17.3852H203.068L204.081 20.3295H191.111Z" fill="white"/>
<path d="M230.692 25.2946C229.223 25.3079 227.765 25.0484 226.392 24.5292C225.11 24.0452 223.938 23.3093 222.947 22.3651C221.971 21.4299 221.198 20.3052 220.675 19.0604C219.594 16.3942 219.594 13.4136 220.675 10.7474C221.2 9.49998 221.978 8.3747 222.962 7.44268C223.957 6.50273 225.127 5.76697 226.407 5.27736C229.272 4.22813 232.423 4.25895 235.267 5.36386C236.613 5.91372 237.805 6.78036 238.742 7.88963L236.31 10.1696C235.63 9.41162 234.794 8.80816 233.86 8.39988C232.926 7.9916 231.915 7.78803 230.895 7.80314C229.9 7.79101 228.913 7.9674 227.985 8.32288C227.13 8.65153 226.353 9.15155 225.7 9.79199C225.048 10.4324 224.534 11.1997 224.192 12.0461C223.477 13.8843 223.477 15.9223 224.192 17.7605C224.534 18.6072 225.048 19.3746 225.7 20.0151C226.353 20.6555 227.13 21.1555 227.985 21.4837C228.913 21.8392 229.9 22.0156 230.895 22.0035C231.91 22.013 232.915 21.8116 233.848 21.4121C234.789 20.9937 235.628 20.3785 236.31 19.6085L238.742 21.9183C237.796 23.0146 236.606 23.8745 235.267 24.4292C233.816 25.022 232.26 25.3164 230.692 25.2946Z" fill="white"/>
<path d="M249.195 25.0056L258.315 4.80078H262.021L271.17 25.0056H267.232L259.386 6.79205H260.892L253.074 25.0056H249.195ZM253.392 20.3295L254.405 17.3852H265.35L266.363 20.3295H253.392Z" fill="white"/>
<path d="M283.88 25.0059V4.79986H292.74C294.744 4.7562 296.73 5.19184 298.53 6.07021C300.128 6.86049 301.472 8.08047 302.41 9.59222C303.321 11.2124 303.8 13.0386 303.8 14.896C303.8 16.7535 303.321 18.5798 302.41 20.2C301.475 21.7181 300.131 22.9434 298.53 23.7356C296.73 24.6141 294.744 25.0498 292.74 25.0059H283.88ZM287.644 21.8308H292.567C293.935 21.8665 295.291 21.57 296.519 20.9667C297.594 20.4222 298.489 19.5804 299.096 18.5422C299.695 17.421 300.007 16.1704 300.007 14.9004C300.007 13.6304 299.695 12.38 299.096 11.2587C298.485 10.2266 297.591 9.39008 296.519 8.8478C295.291 8.24453 293.935 7.94788 292.567 7.98357H287.644V21.8308Z" fill="white"/>
<path d="M321.693 21.8591H333.13V25.0059H317.93V4.7998H332.725V7.94659H321.693V21.8591ZM321.405 13.1993H331.481V16.2855H321.405V13.1993Z" fill="white"/>
<path d="M347.461 25.0059V4.7998H350.557L359.417 19.5494H357.796L366.512 4.7998H369.607L369.636 25.0047H366.075L366.046 10.3711H366.799L359.386 22.6962H357.707L350.18 10.3711H351.046V25.0047L347.461 25.0059Z" fill="white"/>
<path d="M390.227 25.0059V17.0101L391.066 19.3185L382.264 4.7998H386.289L393.347 16.4903H391.09L398.213 4.7998H401.919L393.117 19.3185L393.984 17.0101V25.0059H390.227Z" fill="white"/>
<path d="M8.44409 9.21924V16.5854L13.1076 13.1523L8.44409 9.21924Z" fill="#125DFC"/>
<path d="M221.748 49.2128H218.853V53H217.817V42.6896H221.748C223.735 42.6896 224.988 43.9856 224.988 45.9296C224.988 47.8016 223.721 49.2128 221.748 49.2128ZM221.604 43.6256H218.853V48.2768H221.546C223.044 48.2768 223.908 47.3264 223.908 45.9152C223.908 44.4896 223.029 43.6256 221.604 43.6256ZM225.647 49.5152C225.647 47.384 227.145 45.8432 229.189 45.8432C231.234 45.8432 232.732 47.384 232.732 49.5152C232.732 51.632 231.234 53.1728 229.189 53.1728C227.145 53.1728 225.647 51.632 225.647 49.5152ZM226.655 49.5008C226.655 51.1424 227.692 52.28 229.189 52.28C230.673 52.28 231.724 51.1424 231.724 49.5008C231.724 47.888 230.673 46.736 229.189 46.736C227.692 46.736 226.655 47.888 226.655 49.5008ZM235.48 53L233.176 46.0304H234.199L235.567 50.2352C235.725 50.696 235.855 51.1712 235.999 51.7328C236.114 51.1712 236.344 50.4656 236.416 50.2352L237.799 46.0304H238.821L240.189 50.2352C240.319 50.6096 240.492 51.2144 240.621 51.7328C240.765 51.1568 240.794 50.984 241.039 50.2352L242.421 46.0304H243.458L241.096 53H240.132L238.692 48.6224C238.519 48.104 238.404 47.672 238.317 47.2544C238.216 47.6288 238.101 48.0464 237.914 48.6224L236.474 53H235.48ZM247.313 53.1728C245.268 53.1728 243.9 51.704 243.9 49.5152C243.9 47.3408 245.254 45.8432 247.241 45.8432C249.127 45.8432 250.409 47.1824 250.409 49.1552V49.6448H244.865C244.937 51.344 245.83 52.3232 247.327 52.3232C248.465 52.3232 249.199 51.8336 249.458 50.912H250.409C250.034 52.3808 248.954 53.1728 247.313 53.1728ZM247.241 46.6928C245.93 46.6928 245.066 47.5568 244.894 48.9248H249.415C249.415 47.5856 248.551 46.6928 247.241 46.6928ZM255.641 45.944V46.8368H255.094C253.812 46.8368 252.991 47.7008 252.991 49.0256V53H251.998V46.0304H252.934L253.006 47.1104C253.279 46.3616 254.014 45.872 254.993 45.872C255.209 45.872 255.396 45.8864 255.641 45.944ZM259.618 53.1728C257.573 53.1728 256.205 51.704 256.205 49.5152C256.205 47.3408 257.558 45.8432 259.546 45.8432C261.432 45.8432 262.714 47.1824 262.714 49.1552V49.6448H257.17C257.242 51.344 258.134 52.3232 259.632 52.3232C260.77 52.3232 261.504 51.8336 261.763 50.912H262.714C262.339 52.3808 261.259 53.1728 259.618 53.1728ZM259.546 46.6928C258.235 46.6928 257.371 47.5568 257.198 48.9248H261.72C261.72 47.5856 260.856 46.6928 259.546 46.6928ZM267.038 53.1728C265.008 53.1728 263.813 51.6176 263.813 49.5296C263.813 47.4272 265.008 45.8432 267.081 45.8432C268.233 45.8432 269.155 46.3472 269.645 47.3552V42.5024H270.638V53H269.774L269.673 51.5744C269.184 52.6544 268.205 53.1728 267.038 53.1728ZM267.211 52.2656C268.737 52.2656 269.63 51.1136 269.63 49.5008C269.63 47.9024 268.737 46.736 267.211 46.736C265.699 46.736 264.821 47.9024 264.821 49.5008C264.821 51.1136 265.699 52.2656 267.211 52.2656ZM276.921 53V42.6896H280.694C282.681 42.6896 283.905 43.6976 283.905 45.3536C283.905 46.5632 283.373 47.384 282.307 47.8016C283.502 48.1904 284.107 49.0256 284.107 50.2928C284.107 51.9488 282.869 53 280.91 53H276.921ZM280.68 43.6112H277.958V47.384H280.809C282.105 47.384 282.84 46.664 282.84 45.44C282.84 44.288 282.062 43.6112 280.68 43.6112ZM280.91 48.2912H277.958V52.064H280.91C282.264 52.064 283.056 51.3584 283.056 50.1632C283.056 48.9968 282.249 48.2912 280.91 48.2912ZM284.915 56.0384V55.2176H285.679C286.283 55.2176 286.888 55.1744 287.234 54.2384L287.536 53.4176L284.714 46.0304H285.765L288.011 52.1072L290.215 46.0304H291.237L288.04 54.5984C287.637 55.6928 286.96 56.1392 285.967 56.1392C285.549 56.1392 285.232 56.1104 284.915 56.0384ZM295.99 45.368C295.99 43.64 297.372 42.5024 299.446 42.5024C301.303 42.5024 302.527 43.5392 302.686 45.2672H301.634C301.519 44.1008 300.727 43.4384 299.431 43.4384C297.977 43.4384 297.026 44.1872 297.026 45.3536C297.026 46.2608 297.559 46.8368 298.639 47.1104L300.41 47.5424C302.023 47.9312 302.858 48.8528 302.858 50.2496C302.858 52.0352 301.476 53.1728 299.345 53.1728C297.343 53.1728 295.99 52.1216 295.86 50.4368H296.926C296.983 51.5168 297.934 52.2224 299.345 52.2224C300.857 52.2224 301.822 51.488 301.822 50.3072C301.822 49.3856 301.303 48.7808 300.194 48.5216L298.452 48.0896C296.839 47.7008 295.99 46.7792 295.99 45.368ZM306.508 53.1728C305.025 53.1728 304.147 52.3376 304.147 51.1136C304.147 49.832 305.126 49.0256 306.753 48.896L309.057 48.7088V48.4784C309.057 47.1104 308.236 46.6784 307.214 46.6784C306.004 46.6784 305.284 47.2256 305.284 48.1616H304.377C304.377 46.7504 305.529 45.8432 307.243 45.8432C308.856 45.8432 310.036 46.6496 310.036 48.4928V53H309.201L309.072 51.776C308.64 52.6544 307.689 53.1728 306.508 53.1728ZM306.739 52.3664C308.208 52.3664 309.057 51.344 309.057 49.832V49.4576L306.998 49.616C305.688 49.7312 305.155 50.3072 305.155 51.0848C305.155 51.9344 305.788 52.3664 306.739 52.3664ZM313.502 53H312.523V46.8656H311.126V46.0304H312.523V43.8272H313.502V46.0304H314.899V46.8656H313.502V53ZM317.847 53H316.868V46.8656H315.471V46.0304H316.868V43.8272H317.847V46.0304H319.244V46.8656H317.847V53ZM319.948 51.0416H320.898C320.898 51.848 321.503 52.352 322.482 52.352C323.562 52.352 324.196 51.8912 324.196 51.1424C324.196 50.5664 323.908 50.2352 323.087 50.0336L321.892 49.7312C320.682 49.4288 320.092 48.7952 320.092 47.8448C320.092 46.6208 321.114 45.8432 322.612 45.8432C324.081 45.8432 325.031 46.6496 325.074 47.9456H324.109C324.081 47.1392 323.519 46.664 322.583 46.664C321.604 46.664 321.057 47.0816 321.057 47.8304C321.057 48.3632 321.431 48.7376 322.194 48.9248L323.389 49.2272C324.599 49.5296 325.146 50.0912 325.146 51.0992C325.146 52.352 324.081 53.1728 322.497 53.1728C320.927 53.1728 319.948 52.3376 319.948 51.0416ZM335.196 53.1584C332.316 53.1584 330.358 51.0128 330.358 47.8448C330.358 44.6768 332.345 42.5168 335.254 42.5168C337.472 42.5168 339.214 43.856 339.632 45.9008H338.523C338.091 44.4176 336.824 43.5104 335.211 43.5104C332.95 43.5104 331.438 45.2384 331.438 47.8448C331.438 50.4368 332.95 52.1648 335.211 52.1648C336.838 52.1648 338.134 51.2864 338.58 49.904H339.689C339.214 51.848 337.414 53.1584 335.196 53.1584ZM340.561 56.0384V55.2176H341.324C341.929 55.2176 342.533 55.1744 342.879 54.2384L343.181 53.4176L340.359 46.0304H341.41L343.657 52.1072L345.86 46.0304H346.882L343.685 54.5984C343.282 55.6928 342.605 56.1392 341.612 56.1392C341.194 56.1392 340.877 56.1104 340.561 56.0384ZM348.908 53H348.044V42.5024H349.038V47.384C349.528 46.3616 350.478 45.8432 351.659 45.8432C353.689 45.8432 354.87 47.4272 354.87 49.5296C354.87 51.6176 353.66 53.1728 351.63 53.1728C350.464 53.1728 349.499 52.6544 349.009 51.5744L348.908 53ZM349.052 49.5008C349.052 51.1136 349.945 52.2656 351.472 52.2656C352.984 52.2656 353.862 51.1136 353.862 49.5008C353.862 47.9024 352.984 46.736 351.472 46.736C349.945 46.736 349.052 47.9024 349.052 49.5008ZM359.377 53.1728C357.332 53.1728 355.964 51.704 355.964 49.5152C355.964 47.3408 357.318 45.8432 359.305 45.8432C361.191 45.8432 362.473 47.1824 362.473 49.1552V49.6448H356.929C357.001 51.344 357.894 52.3232 359.391 52.3232C360.529 52.3232 361.263 51.8336 361.523 50.912H362.473C362.099 52.3808 361.019 53.1728 359.377 53.1728ZM359.305 46.6928C357.995 46.6928 357.131 47.5568 356.958 48.9248H361.479C361.479 47.5856 360.615 46.6928 359.305 46.6928ZM367.705 45.944V46.8368H367.158C365.876 46.8368 365.055 47.7008 365.055 49.0256V53H364.062V46.0304H364.998L365.07 47.1104C365.343 46.3616 366.078 45.872 367.057 45.872C367.273 45.872 367.46 45.8864 367.705 45.944ZM372.155 43.64V42.6896H379.543V43.64H376.36V53H375.323V43.64H372.155ZM382.608 53.1728C380.563 53.1728 379.195 51.704 379.195 49.5152C379.195 47.3408 380.549 45.8432 382.536 45.8432C384.423 45.8432 385.704 47.1824 385.704 49.1552V49.6448H380.16C380.232 51.344 381.125 52.3232 382.623 52.3232C383.76 52.3232 384.495 51.8336 384.754 50.912H385.704C385.33 52.3808 384.25 53.1728 382.608 53.1728ZM382.536 46.6928C381.226 46.6928 380.362 47.5568 380.189 48.9248H384.711C384.711 47.5856 383.847 46.6928 382.536 46.6928ZM386.803 49.5296C386.803 47.3408 388.142 45.8432 390.173 45.8432C391.786 45.8432 392.966 46.7792 393.24 48.2192H392.246C391.987 47.2544 391.152 46.7216 390.187 46.7216C388.776 46.7216 387.782 47.8016 387.782 49.5152C387.782 51.1712 388.704 52.28 390.115 52.28C391.152 52.28 391.987 51.704 392.261 50.8112H393.269C392.938 52.2368 391.699 53.1728 390.115 53.1728C388.142 53.1728 386.803 51.7184 386.803 49.5296ZM395.768 52.9856H394.774V42.5024H395.768V47.24C396.214 46.4048 397.064 45.8432 398.23 45.8432C400.059 45.8432 400.88 46.9808 400.88 48.7376V53H399.886V48.9536C399.886 47.3264 399.123 46.7504 398.043 46.7504C396.545 46.7504 395.768 47.8592 395.768 49.1984V52.9856Z" fill="white"/>
</g>
<defs>
<clipPath id="clip0_3033_25378">
<rect width="402" height="60" fill="white"/>
</clipPath>
</defs>
</svg>
