<svg width="22" height="26" viewBox="0 0 22 26" fill="none" xmlns="http://www.w3.org/2000/svg">
<path d="M0 25.0093V0.497346H10.6062C12.0695 0.426423 13.5317 0.658304 14.9007 1.17818C16.2698 1.69806 17.5161 2.4947 18.5612 3.51815C20.6961 5.6464 21.7635 8.67873 21.7635 12.6151C21.9318 15.8004 20.9548 18.9411 19.0082 21.4726C17.9722 22.6635 16.6758 23.6015 15.219 24.2144C13.7621 24.8274 12.1836 25.0988 10.605 25.008L0 25.0093ZM5.4065 5.02916V20.4775H10.2273C11.0091 20.5093 11.7891 20.3793 12.518 20.0957C13.2469 19.812 13.9089 19.3808 14.4624 18.8294C15.1393 18.0509 15.6551 17.1468 15.9803 16.1689C16.3054 15.191 16.4335 14.1585 16.357 13.1311C16.5091 11.0509 15.977 8.97814 14.8413 7.22657C14.1492 6.45015 13.2837 5.84681 12.3146 5.46511C11.3456 5.08342 10.3002 4.93403 9.26264 5.02916H5.4065Z" fill="white"/>
</svg>
