<svg width="37" height="36" viewBox="0 0 37 36" fill="none" xmlns="http://www.w3.org/2000/svg">
<path d="M22.5938 7.65625H21.6875C20.1667 7.65625 19.0208 7.76042 18.25 7.96875C17.2083 8.23958 16.4688 8.78125 16.0312 9.59375C15.7604 10.0729 15.6146 10.8438 15.5938 11.9062C15.5521 13.5729 15.5208 14.5208 15.5 14.75H13.2188V18.5312H15.5938V29.4375H20.2812C20.3021 29.4375 20.3125 29.4271 20.3125 29.4062V22.75C20.3125 21.0833 20.3438 19.6771 20.4062 18.5312L23.5 18.5C23.5833 17.9375 23.6562 17.3438 23.7188 16.7188C23.7812 16.1146 23.8229 15.4688 23.8438 14.7812C23.8438 14.7604 23.8333 14.75 23.8125 14.75H22.4375C22.0625 14.7708 21.7917 14.7812 21.625 14.7812C21.0833 14.7812 20.6458 14.75 20.3125 14.6875C20.3333 14.5625 20.3438 14.4271 20.3438 14.2812C20.3438 14.1354 20.3333 13.9167 20.3125 13.625C20.2917 13.3333 20.2812 13.1146 20.2812 12.9688C20.2812 12.6979 20.3021 12.4792 20.3438 12.3125C20.3854 12.0833 20.4583 11.9062 20.5625 11.7812C20.7292 11.7188 20.9167 11.6667 21.125 11.625C21.3125 11.6042 21.5417 11.5938 21.8125 11.5938C21.9792 11.5938 22.2292 11.6042 22.5625 11.625H23.8125C23.8333 11.625 23.8438 11.6146 23.8438 11.5938V7.6875L22.5938 7.65625ZM6.0625 5.5625C9.5625 2.10417 13.7708 0.375 18.6875 0.375C23.625 0.375 27.8333 2.10417 31.3125 5.5625C34.7917 9 36.5312 13.1458 36.5312 18C36.5312 22.8542 34.7917 27 31.3125 30.4375C27.8333 33.875 23.625 35.5938 18.6875 35.5938C13.7708 35.5938 9.5625 33.875 6.0625 30.4375C2.58333 27 0.84375 22.8542 0.84375 18C0.84375 13.1458 2.58333 9 6.0625 5.5625Z" fill="white"/>
</svg>
