<svg width="28" height="26" viewBox="0 0 28 26" fill="none" xmlns="http://www.w3.org/2000/svg">
<path d="M13.5183 0C6.05359 0 7.80184e-06 5.96773 7.80184e-06 13.3295C-0.003042 16.1234 0.888126 18.8476 2.54757 21.1171C4.20701 23.3866 6.55079 25.0866 9.24768 25.9769C9.92368 26.0997 10.1704 25.6881 10.1704 25.3346C10.1704 25.0177 10.1586 24.1796 10.1518 23.0677C6.39158 23.8726 5.59728 21.2804 5.59728 21.2804C4.98382 19.7403 4.09657 19.3304 4.09657 19.3304C2.86794 18.5039 4.18783 18.5205 4.18783 18.5205C5.54489 18.6151 6.25807 19.8946 6.25807 19.8946C7.46473 21.9309 9.42344 21.3434 10.1941 21.0016C10.3158 20.1403 10.6656 19.5528 11.0526 19.2192C8.05116 18.8823 4.89424 17.7389 4.89424 12.6325C4.89424 11.177 5.42153 9.98715 6.2868 9.05449C6.14653 8.7176 5.68348 7.36175 6.41862 5.52795C6.41862 5.52795 7.5543 5.16949 10.1366 6.89376C11.2398 6.59771 12.3781 6.44703 13.5217 6.44568C14.6653 6.44791 15.8036 6.59914 16.9068 6.89542C19.4874 5.17115 20.6214 5.52961 20.6214 5.52961C21.3582 7.36507 20.8952 8.71926 20.7566 9.05614C21.6235 9.98881 22.1458 11.1787 22.1458 12.6341C22.1458 17.7538 18.9855 18.8807 15.9739 19.2109C16.4589 19.6225 16.8915 20.4357 16.8915 21.6787C16.8915 23.461 16.8746 24.8982 16.8746 25.3346C16.8746 25.6914 17.118 26.1063 17.8041 25.9752C20.4984 25.0829 22.8393 23.3822 24.4964 21.1133C26.1536 18.8443 27.0433 16.1216 27.04 13.3295C27.04 5.96773 20.9864 0 13.5183 0Z" fill="black"/>
</svg>
