<svg width="40" height="40" viewBox="0 0 40 40" fill="none" xmlns="http://www.w3.org/2000/svg">
<mask id="mask0_38_63" style="mask-type:luminance" maskUnits="userSpaceOnUse" x="6" y="6" width="28" height="28">
<path d="M32.8158 17.386H20.3349V22.5532H27.519C26.8493 25.8359 24.0487 27.7204 20.3349 27.7204C15.9513 27.7204 12.4201 24.1945 12.4201 19.8176C12.4201 15.4407 15.9513 11.9149 20.3349 11.9149C22.2222 11.9149 23.9269 12.5836 25.2664 13.6778L29.1629 9.78722C26.7885 7.72035 23.7443 6.44376 20.3349 6.44376C12.9072 6.44376 6.94066 12.4012 6.94066 19.8176C6.94066 27.234 12.9072 33.1915 20.3349 33.1915C27.032 33.1915 33.1203 28.3283 33.1203 19.8176C33.1203 19.0273 32.9985 18.1763 32.8158 17.386Z" fill="white"/>
</mask>
<g mask="url(#mask0_38_63)">
<path d="M5.72301 27.7204V11.9149L16.0731 19.8176L5.72301 27.7204Z" fill="#FBBC05"/>
</g>
<mask id="mask1_38_63" style="mask-type:luminance" maskUnits="userSpaceOnUse" x="6" y="6" width="28" height="28">
<path d="M32.8158 17.386H20.3349V22.5532H27.519C26.8493 25.8359 24.0487 27.7204 20.3349 27.7204C15.9513 27.7204 12.4201 24.1945 12.4201 19.8176C12.4201 15.4407 15.9513 11.9149 20.3349 11.9149C22.2222 11.9149 23.9269 12.5836 25.2664 13.6778L29.1629 9.78722C26.7885 7.72035 23.7443 6.44376 20.3349 6.44376C12.9072 6.44376 6.94066 12.4012 6.94066 19.8176C6.94066 27.234 12.9072 33.1915 20.3349 33.1915C27.032 33.1915 33.1203 28.3283 33.1203 19.8176C33.1203 19.0273 32.9985 18.1763 32.8158 17.386Z" fill="white"/>
</mask>
<g mask="url(#mask1_38_63)">
<path d="M5.72301 11.9149L16.0731 19.8176L20.3349 16.1094L34.9468 13.7386V5.22795H5.72301V11.9149Z" fill="#EA4335"/>
</g>
<mask id="mask2_38_63" style="mask-type:luminance" maskUnits="userSpaceOnUse" x="6" y="6" width="28" height="28">
<path d="M32.8158 17.386H20.3349V22.5532H27.519C26.8493 25.8359 24.0487 27.7204 20.3349 27.7204C15.9513 27.7204 12.4201 24.1945 12.4201 19.8176C12.4201 15.4407 15.9513 11.9149 20.3349 11.9149C22.2222 11.9149 23.9269 12.5836 25.2664 13.6778L29.1629 9.78722C26.7885 7.72035 23.7443 6.44376 20.3349 6.44376C12.9072 6.44376 6.94066 12.4012 6.94066 19.8176C6.94066 27.234 12.9072 33.1915 20.3349 33.1915C27.032 33.1915 33.1203 28.3283 33.1203 19.8176C33.1203 19.0273 32.9985 18.1763 32.8158 17.386Z" fill="white"/>
</mask>
<g mask="url(#mask2_38_63)">
<path d="M5.72301 27.7204L23.9878 13.7386L28.7976 14.3465L34.9468 5.22795V34.4073H5.72301V27.7204Z" fill="#34A853"/>
</g>
<mask id="mask3_38_63" style="mask-type:luminance" maskUnits="userSpaceOnUse" x="6" y="6" width="28" height="28">
<path d="M32.8158 17.386H20.3349V22.5532H27.519C26.8493 25.8359 24.0487 27.7204 20.3349 27.7204C15.9513 27.7204 12.4201 24.1945 12.4201 19.8176C12.4201 15.4407 15.9513 11.9149 20.3349 11.9149C22.2222 11.9149 23.9269 12.5836 25.2664 13.6778L29.1629 9.78722C26.7885 7.72035 23.7443 6.44376 20.3349 6.44376C12.9072 6.44376 6.94066 12.4012 6.94066 19.8176C6.94066 27.234 12.9072 33.1915 20.3349 33.1915C27.032 33.1915 33.1203 28.3283 33.1203 19.8176C33.1203 19.0273 32.9985 18.1763 32.8158 17.386Z" fill="white"/>
</mask>
<g mask="url(#mask3_38_63)">
<path d="M34.9468 34.4073L16.0731 19.8176L13.6378 17.9939L34.9468 11.9149V34.4073Z" fill="#4285F4"/>
</g>
</svg>
