<svg width="36" height="35" viewBox="0 0 36 35" fill="none" xmlns="http://www.w3.org/2000/svg">
<path d="M5.65625 5.46875C9.09375 2.07292 13.2292 0.375 18.0625 0.375C22.9167 0.375 27.0521 2.07292 30.4688 5.46875C33.8854 8.84375 35.5938 12.9167 35.5938 17.6875C35.5938 22.4375 33.8854 26.5 30.4688 29.875C27.0521 33.2708 22.9167 34.9688 18.0625 34.9688C13.2292 34.9688 9.09375 33.2708 5.65625 29.875C2.26042 26.5 0.552083 22.4375 0.53125 17.6875C0.552083 12.9167 2.26042 8.84375 5.65625 5.46875ZM26.1562 30.3438C28.4479 30.0312 29.6875 28.6875 29.875 26.3125C29.9167 25.6667 29.9375 24.8125 29.9375 23.75C29.9375 22.9583 29.9271 22.0521 29.9062 21.0312C29.8646 19.5938 29.8438 18.375 29.8438 17.375C29.8438 16.6458 29.8542 16.0312 29.875 15.5312C27.2708 15.5521 25.4167 15.5625 24.3125 15.5625L23.25 15.5312C23.9167 16.8229 24.25 18.0208 24.25 19.125C24.25 19.4375 24.2188 19.75 24.1562 20.0625C23.8438 21.8542 22.8646 23.1979 21.2188 24.0938C20.3021 24.5938 19.3854 24.8438 18.4688 24.8438C17.5938 24.8438 16.7083 24.6146 15.8125 24.1562C14.0417 23.2812 12.9688 21.9271 12.5938 20.0938C12.5312 19.7812 12.5 19.4479 12.5 19.0938C12.5 18.0104 12.8333 16.8229 13.5 15.5312C12.3125 15.4896 11.1667 15.4688 10.0625 15.4688C8.95833 15.4688 7.89583 15.4896 6.875 15.5312C6.85417 16.1562 6.84375 17.9688 6.84375 20.9688C6.84375 24.2188 6.85417 26.0312 6.875 26.4062C7.04167 28.2396 8.09375 29.4896 10.0312 30.1562C10.3646 30.2812 11.8542 30.3438 14.5 30.3438H26.1562ZM27.5625 12.9375C27.4375 13.0625 26.8438 13.125 25.7812 13.125C24.7604 13.125 24.1875 13.0521 24.0625 12.9062C23.9792 12.8021 23.9375 12.1979 23.9375 11.0938C23.9375 10.0312 24 9.44792 24.125 9.34375C24.1875 9.28125 24.6771 9.23958 25.5938 9.21875H26C26.9375 9.21875 27.4688 9.28125 27.5938 9.40625C27.7188 9.53125 27.7812 10.1354 27.7812 11.2188C27.7812 12.2188 27.7083 12.7917 27.5625 12.9375ZM29.9062 14.7812C29.8021 12.8229 29.75 11.5729 29.75 11.0312V10.75C29.375 8.6875 28.1458 7.53125 26.0625 7.28125H22.8125C22.1042 7.28125 20.4479 7.26042 17.8438 7.21875C16.8229 7.19792 15.8958 7.1875 15.0625 7.1875C14.25 7.1875 13.5312 7.19792 12.9062 7.21875V12.9375C12.4688 12.8958 12.1771 12.875 12.0312 12.875L11.9688 7.21875H11.375C11.3542 7.23958 11.3438 7.27083 11.3438 7.3125V12.9375C10.9062 12.8958 10.6146 12.875 10.4688 12.875C10.4062 12.875 10.375 12.8854 10.375 12.9062C10.3333 10.3229 10.3125 8.625 10.3125 7.8125V7.40625C10.2292 7.40625 10.1354 7.42708 10.0312 7.46875C9.90625 7.51042 9.82292 7.53125 9.78125 7.53125V7.6875C9.78125 8.33333 9.75 10.0833 9.6875 12.9375C9.27083 12.8958 9 12.875 8.875 12.875C8.8125 12.875 8.78125 12.8854 8.78125 12.9062V8.125C7.46875 8.8125 6.8125 10.6042 6.8125 13.5C6.8125 13.9167 6.82292 14.3438 6.84375 14.7812H14.0938C14.0729 14.8021 14.3333 14.6146 14.875 14.2188C16.0208 13.3646 17.1771 12.9375 18.3438 12.9375C19.4479 12.9375 20.5729 13.3125 21.7188 14.0625C22.3646 14.5 22.6875 14.7396 22.6875 14.7812H29.9062ZM16.0312 21.3125C15.3854 20.6875 15.0625 19.9271 15.0625 19.0312V18.7812C15.1458 16.9688 16.0625 15.9271 17.8125 15.6562C18.0417 15.6146 18.2604 15.5938 18.4688 15.5938C19.2604 15.5938 19.9583 15.8542 20.5625 16.375C21.2708 16.9792 21.6562 17.75 21.7188 18.6875V18.9375C21.7188 20.3542 21.0521 21.3542 19.7188 21.9375C19.1979 22.1667 18.6979 22.2812 18.2188 22.2812C17.4271 22.2812 16.6979 21.9583 16.0312 21.3125ZM22.125 16.375C21.2292 15.0625 20.0208 14.4062 18.5 14.4062C18.2917 14.4062 18.0625 14.4167 17.8125 14.4375C16.3542 14.6042 15.2396 15.3438 14.4688 16.6562C14.0729 17.3229 13.8542 17.9896 13.8125 18.6562V18.9062C13.8125 20.2812 14.3021 21.4062 15.2812 22.2812C16.1354 23.0729 17.1562 23.4688 18.3438 23.4688C18.5104 23.4688 18.6771 23.4583 18.8438 23.4375C21.3229 23.2292 22.6667 21.8854 22.875 19.4062C22.8958 19.2396 22.9062 19.0833 22.9062 18.9375C22.9062 18.0208 22.6458 17.1667 22.125 16.375Z" fill="white"/>
</svg>
