<svg width="36" height="35" viewBox="0 0 36 35" fill="none" xmlns="http://www.w3.org/2000/svg">
<path d="M5.71875 5.46875C9.13542 2.07292 13.2708 0.375 18.125 0.375C22.9583 0.375 27.0938 2.07292 30.5312 5.46875C33.9479 8.84375 35.6562 12.9167 35.6562 17.6875C35.6562 22.4583 33.9479 26.5312 30.5312 29.9062C27.0938 33.3021 22.9583 35 18.125 35C13.2708 35 9.13542 33.3021 5.71875 29.9062C2.30208 26.5312 0.59375 22.4583 0.59375 17.6875C0.59375 12.9167 2.30208 8.84375 5.71875 5.46875ZM13.1875 12.5938L12.875 12.625C12.25 12.625 10.9167 12.6042 8.875 12.5625C8.85417 12.5625 8.84375 12.5938 8.84375 12.6562V26.4375H13.125C13.1667 24.6875 13.1875 22.3854 13.1875 19.5312V12.5938ZM10.6875 5.71875C9.22917 5.90625 8.5 6.71875 8.5 8.15625V8.21875C8.52083 9.88542 9.28125 10.7188 10.7812 10.7188C10.9479 10.7188 11.125 10.7083 11.3125 10.6875C12.6458 10.5417 13.3854 9.82292 13.5312 8.53125V8.21875C13.5312 7.46875 13.2708 6.84375 12.75 6.34375C12.2917 5.90625 11.7396 5.6875 11.0938 5.6875C10.9479 5.6875 10.8125 5.69792 10.6875 5.71875ZM28.0625 13.6562C27.2292 12.6979 26 12.2188 24.375 12.2188H23.875C22.2917 12.3021 21 13.0521 20 14.4688V12.5625C18.0208 12.6042 16.7292 12.625 16.125 12.625L15.8438 12.5938V26.4062L16.1562 26.375C16.7812 26.375 18.1146 26.3958 20.1562 26.4375C20.1979 25.9792 20.2188 25.3542 20.2188 24.5625C20.2188 24.0208 20.2083 23.3958 20.1875 22.6875C20.1667 21.7708 20.1562 21 20.1562 20.375C20.1562 19.7292 20.1667 19.2188 20.1875 18.8438C20.2292 18.1562 20.3542 17.6042 20.5625 17.1875C21.0208 16.3125 21.6458 15.875 22.4375 15.875C22.8333 15.875 23.2812 15.9896 23.7812 16.2188C24.5729 16.5729 24.9688 18.4479 24.9688 21.8438V26.4062C25.6979 26.4271 26.4271 26.4375 27.1562 26.4375C27.8854 26.4375 28.6146 26.4271 29.3438 26.4062C29.3438 26.4896 29.3542 26.5312 29.375 26.5312C29.3958 26.5312 29.4062 25.2917 29.4062 22.8125V19.3125C29.3854 16.5833 28.9375 14.6979 28.0625 13.6562Z" fill="white"/>
</svg>
