<svg width="37" height="36" viewBox="0 0 37 36" fill="none" xmlns="http://www.w3.org/2000/svg">
<path d="M5.875 5.5625C9.375 2.10417 13.6146 0.375 18.5938 0.375C23.5729 0.375 27.8125 2.10417 31.3125 5.5625C34.8333 9.04167 36.5938 13.2292 36.5938 18.125C36.5938 23.0208 34.8333 27.1979 31.3125 30.6562C27.8125 34.1354 23.5729 35.875 18.5938 35.875C13.6146 35.875 9.375 34.1354 5.875 30.6562C2.35417 27.1979 0.59375 23.0208 0.59375 18.125C0.59375 13.2292 2.35417 9.04167 5.875 5.5625ZM31.3438 11.125C30.4896 11.5208 29.5833 11.7708 28.625 11.875L28.75 11.7812C29.7083 11.1146 30.3646 10.2604 30.7188 9.21875C29.6979 9.73958 28.8229 10.0833 28.0938 10.25L27.6562 10.375C27.6562 10.3333 27.4375 10.1458 27 9.8125C26.2292 9.20833 25.3229 8.875 24.2812 8.8125H23.8125C22.3125 8.9375 21.1146 9.55208 20.2188 10.6562C19.4896 11.5521 19.125 12.5417 19.125 13.625C19.125 14.0208 19.1667 14.4271 19.25 14.8438C15.2083 14.5521 11.8438 12.8438 9.15625 9.71875C8.67708 10.4479 8.4375 11.2292 8.4375 12.0625C8.4375 12.5417 8.52083 13.0417 8.6875 13.5625C9 14.6458 9.64583 15.5417 10.625 16.25C9.875 16.2292 9.14583 16.0312 8.4375 15.6562C8.58333 18.2188 9.88542 19.8333 12.3438 20.5C12.0104 20.6458 11.6354 20.7188 11.2188 20.7188C10.9062 20.7188 10.5625 20.6771 10.1875 20.5938C10.9167 22.6979 12.4271 23.8333 14.7188 24C14.7188 24.0417 14.625 24.125 14.4375 24.25C12.7083 25.4792 10.8021 26.0938 8.71875 26.0938C8.32292 26.0938 7.92708 26.0729 7.53125 26.0312C9.84375 27.4896 12.2812 28.2188 14.8438 28.2188C17.6771 28.2188 20.1875 27.5521 22.375 26.2188C24.2708 25.0521 25.8229 23.4167 27.0312 21.3125C28.3021 19.125 28.9375 16.7812 28.9375 14.2812V13.7188C28.9375 13.6979 29.1562 13.5 29.5938 13.125C30.3438 12.4792 30.9271 11.8125 31.3438 11.125Z" fill="white"/>
</svg>
