<svg width="357" height="338" viewBox="0 0 357 338" fill="none" xmlns="http://www.w3.org/2000/svg">
<g style="mix-blend-mode:soft-light" clip-path="url(#clip0_3029_25305)">
<path d="M315.984 202.358C315.602 201.291 306.452 175.763 287.98 147.365C277.099 130.649 265.212 116.445 252.658 105.141C236.782 90.8703 219.81 81.24 202.191 76.519C184.572 71.7979 165.059 71.6522 144.174 76.0731C127.651 79.5852 110.254 85.9427 92.4729 94.9796C62.2764 110.336 41.5881 127.869 40.7239 128.602C39.1895 129.898 38.6145 132.044 39.2955 133.933C39.6774 135 48.8275 160.528 67.3002 188.925C78.1806 205.642 90.0588 219.881 102.622 231.15C118.498 245.421 135.469 255.051 153.089 259.772C170.708 264.493 190.221 264.639 211.106 260.218C227.62 256.74 245.026 250.348 262.807 241.311C293.004 225.955 313.692 208.422 314.556 207.689C316.09 206.393 316.665 204.247 315.984 202.358ZM258.415 232.64C231.788 246.17 192.329 260.232 155.602 250.391C118.945 240.569 91.8195 208.74 75.5404 183.788C65.3306 168.029 56.641 151.306 49.6675 133.855C64.3789 122.289 80.1876 112.167 96.8647 103.651C123.492 90.1206 162.951 76.0587 199.678 85.8996C236.335 95.722 263.46 127.551 279.74 152.503C289.949 168.261 298.639 184.985 305.612 202.436C290.901 214.002 275.092 224.124 258.415 232.64Z" fill="white"/>
<path d="M197.85 92.7188C156.208 81.5608 113.371 106.293 102.213 147.935C91.0554 189.577 115.787 232.414 157.429 243.572C199.072 254.73 241.908 229.998 253.066 188.356C264.19 146.705 239.474 103.946 197.85 92.7188ZM159.943 234.191C123.459 224.415 101.818 186.933 111.594 150.448C121.37 113.964 158.853 92.3234 195.337 102.099C231.821 111.875 253.462 149.358 243.686 185.842C233.885 222.283 196.402 243.923 159.943 234.191Z" fill="white"/>
<path d="M192.629 112.207C161.717 103.925 129.984 122.246 121.702 153.157C113.419 184.068 131.74 215.801 162.651 224.084C193.563 232.366 225.295 214.045 233.578 183.134C241.817 152.248 223.496 120.515 192.629 112.207ZM194.838 154.5L201.865 156.383C204.461 157.079 206.007 159.756 205.311 162.352C204.615 164.948 201.938 166.494 199.342 165.798L192.315 163.916C187.547 172.989 177.236 177.683 167.243 175.377L181.855 199.215C182.83 200.701 182.92 202.58 182.084 204.174C181.258 205.733 179.651 206.749 177.868 206.754C176.112 206.803 174.441 205.836 173.555 204.3L152.57 170.184C151.513 168.454 151.61 166.291 152.819 164.685C153.985 163.106 156.04 162.358 157.979 162.877L169.228 165.892C174.195 167.297 179.476 165.447 182.519 161.291L160.019 155.262C157.423 154.566 155.877 151.889 156.573 149.293C157.268 146.697 159.946 145.151 162.542 145.847L185.042 151.875C184.159 147.001 180.496 143.089 175.675 141.834L164.425 138.82C161.829 138.124 160.283 135.447 160.969 132.885C161.665 130.289 164.342 128.743 166.938 129.439L206.261 139.976C208.857 140.671 210.403 143.348 209.707 145.945C209.021 148.506 206.344 150.052 203.748 149.356L193.467 146.601C194.517 148.775 194.871 152.023 194.838 154.5ZM205.645 44.8552L200.3 64.803C199.605 67.395 201.144 70.0597 203.736 70.7542C206.328 71.4487 208.993 69.9103 209.687 67.3182L215.032 47.3705C215.727 44.7785 214.188 42.1138 211.596 41.4192C209.004 40.7247 206.339 42.2632 205.645 44.8552ZM151.072 267.298C148.48 266.604 145.815 268.142 145.121 270.734L139.776 290.682C139.081 293.274 140.62 295.939 143.212 296.633C145.804 297.328 148.468 295.789 149.163 293.197L154.508 273.25C155.203 270.658 153.664 267.993 151.072 267.298ZM272.648 117.509C273.892 117.844 275.218 117.669 276.335 117.023L294.221 106.697C296.469 105.319 297.211 102.403 295.891 100.122C294.574 97.8405 291.679 97.0229 289.362 98.2811L271.478 108.608C269.776 109.591 268.834 111.503 269.09 113.451C269.347 115.399 270.75 117 272.648 117.509ZM78.4731 221.03L60.5874 231.356C58.3392 232.733 57.5996 235.65 58.9166 237.931C60.2329 240.214 63.1291 241.03 65.4461 239.771L83.3294 229.444C84.8449 228.583 85.7819 226.975 85.7847 225.231C85.7899 223.489 84.8581 221.878 83.347 221.009C81.8359 220.14 79.9768 220.148 78.4731 221.03ZM108.594 49.8446C106.27 51.1868 105.473 54.1592 106.815 56.4839L117.142 74.3673C118.004 75.8828 119.612 76.8198 121.355 76.8226C123.098 76.8278 124.711 75.8966 125.578 74.3849C126.447 72.8738 126.439 71.0124 125.558 69.5087L115.231 51.623C113.889 49.3006 110.919 48.5048 108.594 49.8446ZM237.079 263.528C236.218 262.013 234.609 261.076 232.866 261.073C231.123 261.07 229.513 261.999 228.644 263.51C227.775 265.022 227.782 266.883 228.664 268.387L238.99 286.272C240.367 288.52 243.283 289.262 245.565 287.943C247.848 286.627 248.663 283.731 247.405 281.414L237.079 263.528ZM154.85 36.8624C152.2 37.2823 150.391 39.7698 150.808 42.4214L154.031 62.82C154.461 65.4603 156.941 67.2574 159.583 66.8403C162.225 66.4231 164.035 63.9483 163.628 61.3044L160.409 40.904C159.989 38.2541 157.502 36.4431 154.85 36.8624ZM200.777 275.232C200.35 272.593 197.866 270.797 195.224 271.215C192.582 271.632 190.773 274.104 191.18 276.748L194.399 297.148C194.829 299.789 197.31 301.584 199.954 301.167C202.596 300.75 204.403 298.277 203.999 295.633L200.777 275.232ZM252.231 63.7244L239.861 80.2619C238.254 82.4104 238.693 85.456 240.841 87.0633C242.99 88.6707 246.035 88.2315 247.643 86.0831L260.01 69.5472C261.07 68.1584 261.303 66.3074 260.618 64.6994C259.936 63.092 258.443 61.9745 256.709 61.7727C254.972 61.5725 253.264 62.3184 252.231 63.7244ZM113.969 250.99C111.821 249.382 108.775 249.822 107.168 251.97L94.7982 268.505C93.7383 269.894 93.5052 271.745 94.1895 273.353C94.8715 274.961 96.3652 276.078 98.0993 276.28C99.8364 276.48 101.544 275.736 102.579 274.329L114.949 257.791C116.557 255.643 116.118 252.597 113.969 250.99Z" fill="white"/>
</g>
<defs>
<clipPath id="clip0_3029_25305">
<rect width="296.21" height="270.012" fill="white" transform="translate(70.1542) rotate(15)"/>
</clipPath>
</defs>
</svg>
