<svg width="80" height="80" viewBox="0 0 80 80" fill="none" xmlns="http://www.w3.org/2000/svg">
<circle cx="40" cy="40" r="40" fill="#DDFFA7"/>
<path d="M49.9187 34.4666C49.8534 34.8959 49.9974 35.3306 50.3041 35.6373L52.3947 37.7279C53.0214 38.3546 53.3361 39.1773 53.3361 39.9999C53.3361 40.8226 53.0227 41.6439 52.3947 42.2719L50.2467 44.4199C50.1024 44.5642 49.9262 44.6726 49.7324 44.7365C49.5386 44.8004 49.3326 44.818 49.1307 44.7879C48.5041 44.6946 48.0614 44.1479 47.8401 43.5546C47.6459 43.0303 47.323 42.5633 46.901 42.1964C46.4791 41.8296 45.9717 41.5747 45.4255 41.4552C44.8794 41.3358 44.3119 41.3556 43.7754 41.5128C43.2388 41.67 42.7504 41.9596 42.3551 42.3549C41.9597 42.7503 41.6701 43.2387 41.5129 43.7752C41.3557 44.3118 41.3359 44.8792 41.4554 45.4254C41.5748 45.9716 41.8297 46.479 42.1966 46.9009C42.5634 47.3228 43.0304 47.6457 43.5547 47.8399C44.1494 48.0613 44.6947 48.5026 44.7881 49.1306C44.8182 49.3324 44.8007 49.5385 44.7367 49.7324C44.6728 49.9262 44.5644 50.1023 44.4201 50.2466L42.2734 52.3933C41.9753 52.6924 41.6209 52.9297 41.2308 53.0915C40.8407 53.2533 40.4224 53.3363 40.0001 53.3359C39.578 53.3365 39.16 53.2536 38.7701 53.092C38.3802 52.9305 38.0261 52.6935 37.7281 52.3946L35.6374 50.3039C35.4863 50.1526 35.3018 50.0387 35.0987 49.9716C34.8956 49.9044 34.6796 49.8858 34.4681 49.9173C33.8107 50.0159 33.3481 50.5893 33.1081 51.2079C32.9069 51.7243 32.5802 52.1823 32.1575 52.5406C31.7347 52.899 31.2294 53.1462 30.687 53.2601C30.1447 53.374 29.5826 53.3508 29.0514 53.1928C28.5203 53.0347 28.0369 52.7467 27.6451 52.3549C27.2533 51.9631 26.9653 51.4797 26.8072 50.9486C26.6492 50.4175 26.6261 49.8553 26.7399 49.313C26.8538 48.7707 27.101 48.2653 27.4594 47.8425C27.8177 47.4198 28.2757 47.0931 28.7921 46.8919C29.4107 46.6519 29.9841 46.1893 30.0814 45.5319C30.113 45.3205 30.0946 45.1045 30.0277 44.9015C29.9608 44.6984 29.8472 44.5138 29.6961 44.3626L27.6054 42.2719C27.3065 41.9739 27.0695 41.6198 26.908 41.2299C26.7464 40.84 26.6635 40.422 26.6641 39.9999C26.6641 39.1773 26.9787 38.3546 27.6054 37.7279L29.6401 35.6933C29.9601 35.3733 30.4147 35.2226 30.8627 35.2893C31.5494 35.3919 32.0321 35.9933 32.2934 36.6359C32.501 37.1449 32.8313 37.5947 33.2548 37.9452C33.6783 38.2956 34.1819 38.5359 34.7207 38.6446C35.2595 38.7533 35.8169 38.7271 36.3432 38.5682C36.8694 38.4094 37.3482 38.1228 37.7369 37.7341C38.1256 37.3454 38.4121 36.8666 38.571 36.3404C38.7299 35.8141 38.7561 35.2568 38.6474 34.7179C38.5387 34.1791 38.2984 33.6755 37.9479 33.252C37.5975 32.8285 37.1477 32.4982 36.6387 32.2906C35.9961 32.0293 35.3947 31.5466 35.2921 30.8599C35.2254 30.4119 35.3747 29.9586 35.6961 29.6373L37.7294 27.6039C38.0274 27.3055 38.3813 27.0688 38.771 26.9075C39.1606 26.7462 39.5783 26.6634 40.0001 26.6639C40.8227 26.6639 41.6454 26.9786 42.2721 27.6053L44.3627 29.6959C44.6694 30.0026 45.1041 30.1466 45.5321 30.0826C46.1894 29.9839 46.6521 29.4106 46.8921 28.7919C47.0932 28.2756 47.42 27.8176 47.8427 27.4592C48.2654 27.1009 48.7708 26.8537 49.3131 26.7398C49.8554 26.6259 50.4176 26.6491 50.9487 26.8071C51.4798 26.9652 51.9632 27.2531 52.355 27.645C52.7469 28.0368 53.0348 28.5202 53.1929 29.0513C53.3509 29.5824 53.3741 30.1446 53.2602 30.6869C53.1464 31.2292 52.8991 31.7346 52.5408 32.1573C52.1825 32.5801 51.7244 32.9068 51.2081 33.1079C50.5894 33.3479 50.0161 33.8093 49.9187 34.4666Z" stroke="#0C0C0C" stroke-width="2" stroke-linecap="round" stroke-linejoin="round"/>
</svg>
