<svg width="666" height="62" viewBox="0 0 666 62" fill="none" xmlns="http://www.w3.org/2000/svg">
<path d="M0.5 12.5637C0.5 6.21245 5.64873 1.06372 12 1.06372H654C660.351 1.06372 665.5 6.21245 665.5 12.5637V60.7462H0.5V12.5637Z" fill="#404040"/>
<path d="M0.5 12.5637C0.5 6.21245 5.64873 1.06372 12 1.06372H654C660.351 1.06372 665.5 6.21245 665.5 12.5637V60.7462H0.5V12.5637Z" stroke="#EBEBEB"/>
<circle cx="38" cy="30.5637" r="6" fill="#E01010"/>
<circle cx="58" cy="30.5637" r="6" fill="#FF5C00"/>
<circle cx="78" cy="30.5637" r="6" fill="#FFB701"/>
<path d="M125.75 21.5637C127.545 21.5637 129 23.0188 129 24.8137V36.3137C129 38.1086 127.545 39.5637 125.75 39.5637H114.25C112.455 39.5637 111 38.1086 111 36.3137V24.8137C111 23.0188 112.455 21.5637 114.25 21.5637H125.75ZM125.75 23.0637H114.25C113.283 23.0637 112.5 23.8472 112.5 24.8137V36.3137C112.5 37.2802 113.283 38.0637 114.25 38.0637H125.75C126.717 38.0637 127.5 37.2802 127.5 36.3137V24.8137C127.5 23.8472 126.717 23.0637 125.75 23.0637ZM115.75 25.5637C116.13 25.5637 116.443 25.8459 116.493 26.212L116.5 26.3137V34.8137C116.5 35.2279 116.164 35.5637 115.75 35.5637C115.37 35.5637 115.057 35.2815 115.007 34.9155L115 34.8137V26.3137C115 25.8995 115.336 25.5637 115.75 25.5637Z" fill="#BFBFBF"/>
<path d="M173 24.5637L179 30.5637L173 36.5637" stroke="#BFBFBF" stroke-width="1.5" stroke-linecap="round" stroke-linejoin="round"/>
<path d="M159 24.5637L153 30.5637L159 36.5637" stroke="#BFBFBF" stroke-width="1.5" stroke-linecap="round" stroke-linejoin="round"/>
<path d="M252 20C252 17.7909 253.791 16 256 16H515C517.209 16 519 17.7909 519 20V36C519 38.2091 517.209 40 515 40H256C253.791 40 252 38.2091 252 36V20Z" fill="#EBEBEB"/>
<path d="M303.667 21.8334C306.336 21.8334 308.5 23.9973 308.5 26.6667C308.5 27.8213 308.095 28.8813 307.42 29.7126L310.687 32.9798C310.882 33.1751 310.882 33.4916 310.687 33.6869C310.509 33.8644 310.232 33.8806 310.036 33.7353L309.98 33.6869L306.713 30.4197C305.881 31.0952 304.821 31.5 303.667 31.5C300.997 31.5 298.833 29.3361 298.833 26.6667C298.833 23.9973 300.997 21.8334 303.667 21.8334ZM303.667 22.8334C301.55 22.8334 299.833 24.5496 299.833 26.6667C299.833 28.7838 301.55 30.5 303.667 30.5C305.784 30.5 307.5 28.7838 307.5 26.6667C307.5 24.5496 305.784 22.8334 303.667 22.8334Z" fill="#404040"/>
<path d="M323.749 31.5H322.265L322.274 30.7334H323.749C324.257 30.7334 324.68 30.6276 325.019 30.416C325.357 30.2012 325.611 29.9017 325.78 29.5176C325.953 29.1302 326.039 28.6777 326.039 28.1602V27.7256C326.039 27.3187 325.99 26.9574 325.893 26.6416C325.795 26.3226 325.652 26.054 325.463 25.8359C325.274 25.6146 325.043 25.4469 324.77 25.333C324.499 25.2191 324.188 25.1621 323.837 25.1621H322.235V24.3906H323.837C324.302 24.3906 324.727 24.4688 325.111 24.625C325.495 24.778 325.826 25.001 326.103 25.2939C326.382 25.5837 326.597 25.9352 326.747 26.3486C326.897 26.7588 326.972 27.221 326.972 27.7354V28.1602C326.972 28.6745 326.897 29.1383 326.747 29.5518C326.597 29.9619 326.381 30.3118 326.098 30.6016C325.818 30.8913 325.479 31.1143 325.082 31.2705C324.688 31.4235 324.244 31.5 323.749 31.5ZM322.768 24.3906V31.5H321.825V24.3906H322.768ZM331.366 30.5967V27.877C331.366 27.6686 331.324 27.488 331.239 27.335C331.158 27.1787 331.034 27.0583 330.868 26.9736C330.702 26.889 330.497 26.8467 330.253 26.8467C330.025 26.8467 329.825 26.8857 329.652 26.9639C329.483 27.042 329.35 27.1445 329.252 27.2715C329.158 27.3984 329.11 27.5352 329.11 27.6816H328.207C328.207 27.4928 328.256 27.3057 328.354 27.1201C328.451 26.9346 328.591 26.7669 328.773 26.6172C328.959 26.4642 329.18 26.3438 329.438 26.2559C329.698 26.1647 329.988 26.1191 330.307 26.1191C330.691 26.1191 331.029 26.1842 331.322 26.3145C331.618 26.4447 331.85 26.6416 332.016 26.9053C332.185 27.1657 332.27 27.4928 332.27 27.8867V30.3477C332.27 30.5234 332.284 30.7106 332.313 30.9092C332.346 31.1077 332.393 31.2786 332.455 31.4219V31.5H331.513C331.467 31.3958 331.431 31.2575 331.405 31.085C331.379 30.9092 331.366 30.7464 331.366 30.5967ZM331.522 28.2969L331.532 28.9316H330.619C330.362 28.9316 330.132 28.9528 329.931 28.9951C329.729 29.0342 329.56 29.0944 329.423 29.1758C329.286 29.2572 329.182 29.3597 329.11 29.4834C329.039 29.6038 329.003 29.7454 329.003 29.9082C329.003 30.0742 329.04 30.2256 329.115 30.3623C329.19 30.499 329.302 30.6081 329.452 30.6895C329.605 30.7676 329.792 30.8066 330.014 30.8066C330.29 30.8066 330.535 30.748 330.746 30.6309C330.958 30.5137 331.125 30.3704 331.249 30.2012C331.376 30.0319 331.444 29.8675 331.454 29.708L331.84 30.1426C331.817 30.2793 331.755 30.4307 331.654 30.5967C331.553 30.7627 331.418 30.9222 331.249 31.0752C331.083 31.2249 330.884 31.3503 330.653 31.4512C330.425 31.5488 330.168 31.5977 329.882 31.5977C329.524 31.5977 329.21 31.5277 328.939 31.3877C328.673 31.2477 328.464 31.0605 328.314 30.8262C328.168 30.5885 328.095 30.3232 328.095 30.0303C328.095 29.7471 328.15 29.498 328.261 29.2832C328.371 29.0651 328.531 28.8844 328.739 28.7412C328.948 28.5947 329.198 28.484 329.491 28.4092C329.784 28.3343 330.111 28.2969 330.473 28.2969H331.522ZM335.902 26.2168V26.9102H333.046V26.2168H335.902ZM334.013 24.9326H334.916V30.1914C334.916 30.3704 334.944 30.5055 334.999 30.5967C335.054 30.6878 335.126 30.748 335.214 30.7773C335.302 30.8066 335.396 30.8213 335.497 30.8213C335.572 30.8213 335.65 30.8148 335.731 30.8018C335.816 30.7855 335.88 30.7725 335.922 30.7627L335.927 31.5C335.855 31.5228 335.761 31.5439 335.644 31.5635C335.53 31.5863 335.391 31.5977 335.229 31.5977C335.007 31.5977 334.804 31.5537 334.618 31.4658C334.433 31.3779 334.285 31.2314 334.174 31.0264C334.066 30.818 334.013 30.5381 334.013 30.1865V24.9326ZM340.077 30.5967V27.877C340.077 27.6686 340.035 27.488 339.95 27.335C339.869 27.1787 339.745 27.0583 339.579 26.9736C339.413 26.889 339.208 26.8467 338.964 26.8467C338.736 26.8467 338.536 26.8857 338.363 26.9639C338.194 27.042 338.061 27.1445 337.963 27.2715C337.868 27.3984 337.821 27.5352 337.821 27.6816H336.918C336.918 27.4928 336.967 27.3057 337.064 27.1201C337.162 26.9346 337.302 26.7669 337.484 26.6172C337.67 26.4642 337.891 26.3438 338.148 26.2559C338.409 26.1647 338.699 26.1191 339.018 26.1191C339.402 26.1191 339.74 26.1842 340.033 26.3145C340.329 26.4447 340.561 26.6416 340.727 26.9053C340.896 27.1657 340.98 27.4928 340.98 27.8867V30.3477C340.98 30.5234 340.995 30.7106 341.024 30.9092C341.057 31.1077 341.104 31.2786 341.166 31.4219V31.5H340.224C340.178 31.3958 340.142 31.2575 340.116 31.085C340.09 30.9092 340.077 30.7464 340.077 30.5967ZM340.233 28.2969L340.243 28.9316H339.33C339.073 28.9316 338.843 28.9528 338.642 28.9951C338.44 29.0342 338.271 29.0944 338.134 29.1758C337.997 29.2572 337.893 29.3597 337.821 29.4834C337.75 29.6038 337.714 29.7454 337.714 29.9082C337.714 30.0742 337.751 30.2256 337.826 30.3623C337.901 30.499 338.013 30.6081 338.163 30.6895C338.316 30.7676 338.503 30.8066 338.725 30.8066C339.001 30.8066 339.245 30.748 339.457 30.6309C339.669 30.5137 339.836 30.3704 339.96 30.2012C340.087 30.0319 340.155 29.8675 340.165 29.708L340.551 30.1426C340.528 30.2793 340.466 30.4307 340.365 30.5967C340.264 30.7627 340.129 30.9222 339.96 31.0752C339.794 31.2249 339.595 31.3503 339.364 31.4512C339.136 31.5488 338.879 31.5977 338.593 31.5977C338.235 31.5977 337.921 31.5277 337.65 31.3877C337.383 31.2477 337.175 31.0605 337.025 30.8262C336.879 30.5885 336.806 30.3232 336.806 30.0303C336.806 29.7471 336.861 29.498 336.972 29.2832C337.082 29.0651 337.242 28.8844 337.45 28.7412C337.659 28.5947 337.909 28.484 338.202 28.4092C338.495 28.3343 338.822 28.2969 339.184 28.2969H340.233ZM345.478 30.0986C345.478 29.9684 345.448 29.848 345.39 29.7373C345.334 29.6234 345.219 29.5208 345.043 29.4297C344.87 29.3353 344.61 29.2539 344.262 29.1855C343.969 29.1237 343.703 29.0505 343.466 28.9658C343.231 28.8812 343.031 28.7786 342.865 28.6582C342.702 28.5378 342.577 28.3962 342.489 28.2334C342.401 28.0706 342.357 27.8802 342.357 27.6621C342.357 27.4538 342.403 27.2568 342.494 27.0713C342.589 26.8857 342.72 26.7214 342.89 26.5781C343.062 26.4349 343.269 26.3226 343.51 26.2412C343.751 26.1598 344.019 26.1191 344.315 26.1191C344.739 26.1191 345.1 26.194 345.399 26.3438C345.699 26.4935 345.928 26.6937 346.088 26.9443C346.247 27.1917 346.327 27.4668 346.327 27.7695H345.424C345.424 27.623 345.38 27.4814 345.292 27.3447C345.207 27.2048 345.082 27.0892 344.916 26.998C344.753 26.9069 344.553 26.8613 344.315 26.8613C344.065 26.8613 343.861 26.9004 343.705 26.9785C343.552 27.0534 343.44 27.1494 343.368 27.2666C343.3 27.3838 343.266 27.5075 343.266 27.6377C343.266 27.7354 343.282 27.8232 343.314 27.9014C343.35 27.9762 343.412 28.0462 343.5 28.1113C343.588 28.1732 343.712 28.2318 343.871 28.2871C344.031 28.3424 344.234 28.3978 344.481 28.4531C344.914 28.5508 345.271 28.668 345.551 28.8047C345.831 28.9414 346.039 29.109 346.176 29.3076C346.312 29.5062 346.381 29.7471 346.381 30.0303C346.381 30.2614 346.332 30.473 346.234 30.665C346.14 30.8571 346.002 31.0231 345.819 31.1631C345.64 31.2998 345.425 31.4072 345.175 31.4854C344.927 31.5602 344.649 31.5977 344.34 31.5977C343.874 31.5977 343.48 31.5146 343.158 31.3486C342.836 31.1826 342.592 30.9678 342.426 30.7041C342.26 30.4404 342.177 30.1621 342.177 29.8691H343.085C343.098 30.1165 343.17 30.3135 343.3 30.46C343.43 30.6032 343.59 30.7057 343.778 30.7676C343.967 30.8262 344.154 30.8555 344.34 30.8555C344.587 30.8555 344.794 30.8229 344.96 30.7578C345.129 30.6927 345.258 30.6032 345.346 30.4893C345.434 30.3753 345.478 30.2451 345.478 30.0986ZM348.471 27.2324V33.5312H347.562V26.2168H348.393L348.471 27.2324ZM352.03 28.8145V28.917C352.03 29.3011 351.985 29.6576 351.894 29.9863C351.802 30.3118 351.669 30.5951 351.493 30.8359C351.321 31.0768 351.107 31.264 350.854 31.3975C350.6 31.5309 350.308 31.5977 349.979 31.5977C349.644 31.5977 349.348 31.5423 349.091 31.4316C348.834 31.321 348.616 31.1598 348.437 30.9482C348.257 30.7367 348.114 30.4827 348.007 30.1865C347.903 29.8903 347.831 29.5566 347.792 29.1855V28.6387C347.831 28.248 347.904 27.8981 348.012 27.5889C348.119 27.2796 348.261 27.016 348.437 26.7979C348.616 26.5765 348.832 26.4089 349.086 26.2949C349.34 26.1777 349.633 26.1191 349.965 26.1191C350.297 26.1191 350.591 26.1842 350.849 26.3145C351.106 26.4414 351.322 26.6237 351.498 26.8613C351.674 27.099 351.806 27.3838 351.894 27.7158C351.985 28.0446 352.03 28.4108 352.03 28.8145ZM351.122 28.917V28.8145C351.122 28.5508 351.094 28.3034 351.039 28.0723C350.984 27.8379 350.897 27.6328 350.78 27.457C350.666 27.278 350.52 27.138 350.341 27.0371C350.162 26.9329 349.949 26.8809 349.701 26.8809C349.473 26.8809 349.275 26.9199 349.105 26.998C348.939 27.0762 348.798 27.182 348.681 27.3154C348.563 27.4456 348.467 27.5954 348.393 27.7646C348.321 27.9307 348.267 28.1032 348.231 28.2822V29.5469C348.297 29.7747 348.388 29.9896 348.505 30.1914C348.622 30.39 348.778 30.5511 348.974 30.6748C349.169 30.7952 349.415 30.8555 349.711 30.8555C349.955 30.8555 350.165 30.805 350.341 30.7041C350.52 30.5999 350.666 30.4583 350.78 30.2793C350.897 30.1003 350.984 29.8952 351.039 29.6641C351.094 29.4297 351.122 29.1807 351.122 28.917ZM356.298 30.5967V27.877C356.298 27.6686 356.256 27.488 356.171 27.335C356.09 27.1787 355.966 27.0583 355.8 26.9736C355.634 26.889 355.429 26.8467 355.185 26.8467C354.957 26.8467 354.757 26.8857 354.584 26.9639C354.415 27.042 354.281 27.1445 354.184 27.2715C354.089 27.3984 354.042 27.5352 354.042 27.6816H353.139C353.139 27.4928 353.188 27.3057 353.285 27.1201C353.383 26.9346 353.523 26.7669 353.705 26.6172C353.891 26.4642 354.112 26.3438 354.369 26.2559C354.63 26.1647 354.919 26.1191 355.238 26.1191C355.622 26.1191 355.961 26.1842 356.254 26.3145C356.55 26.4447 356.781 26.6416 356.947 26.9053C357.117 27.1657 357.201 27.4928 357.201 27.8867V30.3477C357.201 30.5234 357.216 30.7106 357.245 30.9092C357.278 31.1077 357.325 31.2786 357.387 31.4219V31.5H356.444C356.399 31.3958 356.363 31.2575 356.337 31.085C356.311 30.9092 356.298 30.7464 356.298 30.5967ZM356.454 28.2969L356.464 28.9316H355.551C355.294 28.9316 355.064 28.9528 354.862 28.9951C354.66 29.0342 354.491 29.0944 354.354 29.1758C354.218 29.2572 354.114 29.3597 354.042 29.4834C353.97 29.6038 353.935 29.7454 353.935 29.9082C353.935 30.0742 353.972 30.2256 354.047 30.3623C354.122 30.499 354.234 30.6081 354.384 30.6895C354.537 30.7676 354.724 30.8066 354.945 30.8066C355.222 30.8066 355.466 30.748 355.678 30.6309C355.889 30.5137 356.057 30.3704 356.181 30.2012C356.308 30.0319 356.376 29.8675 356.386 29.708L356.771 30.1426C356.749 30.2793 356.687 30.4307 356.586 30.5967C356.485 30.7627 356.35 30.9222 356.181 31.0752C356.015 31.2249 355.816 31.3503 355.585 31.4512C355.357 31.5488 355.1 31.5977 354.813 31.5977C354.455 31.5977 354.141 31.5277 353.871 31.3877C353.604 31.2477 353.396 31.0605 353.246 30.8262C353.1 30.5885 353.026 30.3232 353.026 30.0303C353.026 29.7471 353.082 29.498 353.192 29.2832C353.303 29.0651 353.463 28.8844 353.671 28.7412C353.879 28.5947 354.13 28.484 354.423 28.4092C354.716 28.3343 355.043 28.2969 355.404 28.2969H356.454ZM360.736 30.8555C360.951 30.8555 361.15 30.8115 361.332 30.7236C361.514 30.6357 361.664 30.5153 361.781 30.3623C361.898 30.2061 361.965 30.0286 361.981 29.8301H362.841C362.825 30.1426 362.719 30.4339 362.523 30.7041C362.331 30.971 362.079 31.1875 361.767 31.3535C361.454 31.5163 361.111 31.5977 360.736 31.5977C360.339 31.5977 359.993 31.5277 359.696 31.3877C359.403 31.2477 359.159 31.0557 358.964 30.8115C358.772 30.5674 358.627 30.2874 358.529 29.9717C358.435 29.6527 358.388 29.3158 358.388 28.9609V28.7559C358.388 28.401 358.435 28.0658 358.529 27.75C358.627 27.431 358.772 27.1494 358.964 26.9053C359.159 26.6611 359.403 26.4691 359.696 26.3291C359.993 26.1891 360.339 26.1191 360.736 26.1191C361.15 26.1191 361.511 26.2038 361.82 26.373C362.13 26.5391 362.372 26.7669 362.548 27.0566C362.727 27.3431 362.825 27.6686 362.841 28.0332H361.981C361.965 27.8151 361.903 27.6182 361.796 27.4424C361.692 27.2666 361.549 27.1266 361.366 27.0225C361.187 26.915 360.977 26.8613 360.736 26.8613C360.46 26.8613 360.227 26.9167 360.038 27.0273C359.853 27.1348 359.704 27.2812 359.594 27.4668C359.486 27.6491 359.408 27.8525 359.359 28.0771C359.314 28.2985 359.291 28.5247 359.291 28.7559V28.9609C359.291 29.1921 359.314 29.4199 359.359 29.6445C359.405 29.8691 359.481 30.0726 359.589 30.2549C359.7 30.4372 359.848 30.5837 360.033 30.6943C360.222 30.8018 360.456 30.8555 360.736 30.8555ZM366.049 31.5977C365.681 31.5977 365.347 31.5358 365.048 31.4121C364.752 31.2852 364.496 31.1077 364.281 30.8799C364.07 30.652 363.907 30.3818 363.793 30.0693C363.679 29.7568 363.622 29.415 363.622 29.0439V28.8389C363.622 28.4092 363.686 28.0267 363.812 27.6914C363.939 27.3529 364.112 27.0664 364.33 26.832C364.548 26.5977 364.796 26.4202 365.072 26.2998C365.349 26.1794 365.635 26.1191 365.932 26.1191C366.309 26.1191 366.635 26.1842 366.908 26.3145C367.185 26.4447 367.411 26.627 367.587 26.8613C367.763 27.0924 367.893 27.3659 367.978 27.6816C368.062 27.9941 368.104 28.3359 368.104 28.707V29.1123H364.159V28.375H367.201V28.3066C367.188 28.0723 367.139 27.8444 367.055 27.623C366.973 27.4017 366.843 27.2194 366.664 27.0762C366.485 26.9329 366.241 26.8613 365.932 26.8613C365.727 26.8613 365.538 26.9053 365.365 26.9932C365.193 27.0778 365.045 27.2048 364.921 27.374C364.797 27.5433 364.701 27.75 364.633 27.9941C364.564 28.2383 364.53 28.5199 364.53 28.8389V29.0439C364.53 29.2946 364.564 29.5306 364.633 29.752C364.704 29.9701 364.807 30.1621 364.94 30.3281C365.077 30.4941 365.242 30.6243 365.434 30.7188C365.629 30.8132 365.85 30.8604 366.098 30.8604C366.417 30.8604 366.687 30.7952 366.908 30.665C367.13 30.5348 367.323 30.3607 367.489 30.1426L368.036 30.5771C367.922 30.7497 367.777 30.9141 367.602 31.0703C367.426 31.2266 367.209 31.3535 366.952 31.4512C366.698 31.5488 366.397 31.5977 366.049 31.5977ZM374.408 25.0205L372.055 31.5H371.093L373.803 24.3906H374.423L374.408 25.0205ZM376.381 31.5L374.022 25.0205L374.008 24.3906H374.628L377.348 31.5H376.381ZM376.259 28.8682V29.6396H372.265V28.8682H376.259ZM380.277 30.8555C380.492 30.8555 380.691 30.8115 380.873 30.7236C381.055 30.6357 381.205 30.5153 381.322 30.3623C381.439 30.2061 381.506 30.0286 381.522 29.8301H382.382C382.366 30.1426 382.26 30.4339 382.064 30.7041C381.872 30.971 381.62 31.1875 381.308 31.3535C380.995 31.5163 380.652 31.5977 380.277 31.5977C379.88 31.5977 379.534 31.5277 379.237 31.3877C378.944 31.2477 378.7 31.0557 378.505 30.8115C378.313 30.5674 378.168 30.2874 378.07 29.9717C377.976 29.6527 377.929 29.3158 377.929 28.9609V28.7559C377.929 28.401 377.976 28.0658 378.07 27.75C378.168 27.431 378.313 27.1494 378.505 26.9053C378.7 26.6611 378.944 26.4691 379.237 26.3291C379.534 26.1891 379.88 26.1191 380.277 26.1191C380.691 26.1191 381.052 26.2038 381.361 26.373C381.671 26.5391 381.913 26.7669 382.089 27.0566C382.268 27.3431 382.366 27.6686 382.382 28.0332H381.522C381.506 27.8151 381.444 27.6182 381.337 27.4424C381.233 27.2666 381.09 27.1266 380.907 27.0225C380.728 26.915 380.518 26.8613 380.277 26.8613C380.001 26.8613 379.768 26.9167 379.579 27.0273C379.394 27.1348 379.245 27.2812 379.135 27.4668C379.027 27.6491 378.949 27.8525 378.9 28.0771C378.855 28.2985 378.832 28.5247 378.832 28.7559V28.9609C378.832 29.1921 378.855 29.4199 378.9 29.6445C378.946 29.8691 379.022 30.0726 379.13 30.2549C379.241 30.4372 379.389 30.5837 379.574 30.6943C379.763 30.8018 379.997 30.8555 380.277 30.8555ZM386.513 30.5967V27.877C386.513 27.6686 386.47 27.488 386.386 27.335C386.304 27.1787 386.181 27.0583 386.015 26.9736C385.849 26.889 385.644 26.8467 385.399 26.8467C385.172 26.8467 384.971 26.8857 384.799 26.9639C384.63 27.042 384.496 27.1445 384.398 27.2715C384.304 27.3984 384.257 27.5352 384.257 27.6816H383.354C383.354 27.4928 383.402 27.3057 383.5 27.1201C383.598 26.9346 383.738 26.7669 383.92 26.6172C384.105 26.4642 384.327 26.3438 384.584 26.2559C384.844 26.1647 385.134 26.1191 385.453 26.1191C385.837 26.1191 386.176 26.1842 386.469 26.3145C386.765 26.4447 386.996 26.6416 387.162 26.9053C387.331 27.1657 387.416 27.4928 387.416 27.8867V30.3477C387.416 30.5234 387.431 30.7106 387.46 30.9092C387.493 31.1077 387.54 31.2786 387.602 31.4219V31.5H386.659C386.614 31.3958 386.578 31.2575 386.552 31.085C386.526 30.9092 386.513 30.7464 386.513 30.5967ZM386.669 28.2969L386.679 28.9316H385.766C385.508 28.9316 385.279 28.9528 385.077 28.9951C384.875 29.0342 384.706 29.0944 384.569 29.1758C384.433 29.2572 384.328 29.3597 384.257 29.4834C384.185 29.6038 384.149 29.7454 384.149 29.9082C384.149 30.0742 384.187 30.2256 384.262 30.3623C384.337 30.499 384.449 30.6081 384.599 30.6895C384.752 30.7676 384.939 30.8066 385.16 30.8066C385.437 30.8066 385.681 30.748 385.893 30.6309C386.104 30.5137 386.272 30.3704 386.396 30.2012C386.522 30.0319 386.591 29.8675 386.601 29.708L386.986 30.1426C386.964 30.2793 386.902 30.4307 386.801 30.5967C386.7 30.7627 386.565 30.9222 386.396 31.0752C386.229 31.2249 386.031 31.3503 385.8 31.4512C385.572 31.5488 385.315 31.5977 385.028 31.5977C384.67 31.5977 384.356 31.5277 384.086 31.3877C383.819 31.2477 383.611 31.0605 383.461 30.8262C383.314 30.5885 383.241 30.3232 383.241 30.0303C383.241 29.7471 383.297 29.498 383.407 29.2832C383.518 29.0651 383.677 28.8844 383.886 28.7412C384.094 28.5947 384.345 28.484 384.638 28.4092C384.931 28.3343 385.258 28.2969 385.619 28.2969H386.669ZM392.167 30.4746V24H393.075V31.5H392.245L392.167 30.4746ZM388.612 28.917V28.8145C388.612 28.4108 388.661 28.0446 388.759 27.7158C388.86 27.3838 389.001 27.099 389.184 26.8613C389.369 26.6237 389.589 26.4414 389.843 26.3145C390.1 26.1842 390.386 26.1191 390.702 26.1191C391.034 26.1191 391.324 26.1777 391.571 26.2949C391.822 26.4089 392.034 26.5765 392.206 26.7979C392.382 27.016 392.52 27.2796 392.621 27.5889C392.722 27.8981 392.792 28.248 392.831 28.6387V29.0879C392.795 29.4753 392.725 29.8236 392.621 30.1328C392.52 30.4421 392.382 30.7057 392.206 30.9238C392.034 31.1419 391.822 31.3096 391.571 31.4268C391.321 31.5407 391.028 31.5977 390.692 31.5977C390.383 31.5977 390.1 31.5309 389.843 31.3975C389.589 31.264 389.369 31.0768 389.184 30.8359C389.001 30.5951 388.86 30.3118 388.759 29.9863C388.661 29.6576 388.612 29.3011 388.612 28.917ZM389.521 28.8145V28.917C389.521 29.1807 389.547 29.4281 389.599 29.6592C389.654 29.8903 389.739 30.0938 389.853 30.2695C389.966 30.4453 390.111 30.5837 390.287 30.6846C390.463 30.7822 390.673 30.8311 390.917 30.8311C391.216 30.8311 391.462 30.7676 391.654 30.6406C391.85 30.5137 392.006 30.346 392.123 30.1377C392.24 29.9294 392.331 29.7031 392.396 29.459V28.2822C392.357 28.1032 392.3 27.9307 392.226 27.7646C392.154 27.5954 392.06 27.4456 391.942 27.3154C391.828 27.182 391.687 27.0762 391.518 26.998C391.352 26.9199 391.155 26.8809 390.927 26.8809C390.679 26.8809 390.466 26.9329 390.287 27.0371C390.111 27.138 389.966 27.278 389.853 27.457C389.739 27.6328 389.654 27.8379 389.599 28.0723C389.547 28.3034 389.521 28.5508 389.521 28.8145ZM396.674 31.5977C396.306 31.5977 395.972 31.5358 395.673 31.4121C395.377 31.2852 395.121 31.1077 394.906 30.8799C394.695 30.652 394.532 30.3818 394.418 30.0693C394.304 29.7568 394.247 29.415 394.247 29.0439V28.8389C394.247 28.4092 394.311 28.0267 394.438 27.6914C394.564 27.3529 394.737 27.0664 394.955 26.832C395.173 26.5977 395.421 26.4202 395.697 26.2998C395.974 26.1794 396.26 26.1191 396.557 26.1191C396.934 26.1191 397.26 26.1842 397.533 26.3145C397.81 26.4447 398.036 26.627 398.212 26.8613C398.388 27.0924 398.518 27.3659 398.603 27.6816C398.687 27.9941 398.729 28.3359 398.729 28.707V29.1123H394.784V28.375H397.826V28.3066C397.813 28.0723 397.764 27.8444 397.68 27.623C397.598 27.4017 397.468 27.2194 397.289 27.0762C397.11 26.9329 396.866 26.8613 396.557 26.8613C396.352 26.8613 396.163 26.9053 395.99 26.9932C395.818 27.0778 395.67 27.2048 395.546 27.374C395.422 27.5433 395.326 27.75 395.258 27.9941C395.189 28.2383 395.155 28.5199 395.155 28.8389V29.0439C395.155 29.2946 395.189 29.5306 395.258 29.752C395.329 29.9701 395.432 30.1621 395.565 30.3281C395.702 30.4941 395.867 30.6243 396.059 30.7188C396.254 30.8132 396.475 30.8604 396.723 30.8604C397.042 30.8604 397.312 30.7952 397.533 30.665C397.755 30.5348 397.948 30.3607 398.114 30.1426L398.661 30.5771C398.547 30.7497 398.402 30.9141 398.227 31.0703C398.051 31.2266 397.834 31.3535 397.577 31.4512C397.323 31.5488 397.022 31.5977 396.674 31.5977ZM400.683 27.2666V31.5H399.774V26.2168H400.634L400.683 27.2666ZM400.497 28.6582L400.077 28.6436C400.08 28.2822 400.128 27.9486 400.219 27.6426C400.31 27.3333 400.445 27.0648 400.624 26.8369C400.803 26.609 401.026 26.4333 401.293 26.3096C401.56 26.1826 401.869 26.1191 402.221 26.1191C402.468 26.1191 402.696 26.1549 402.904 26.2266C403.113 26.2949 403.293 26.404 403.446 26.5537C403.599 26.7035 403.718 26.8955 403.803 27.1299C403.887 27.3643 403.93 27.6475 403.93 27.9795V31.5H403.026V28.0234C403.026 27.7467 402.979 27.5254 402.885 27.3594C402.794 27.1934 402.663 27.0729 402.494 26.998C402.325 26.9199 402.126 26.8809 401.898 26.8809C401.632 26.8809 401.409 26.9281 401.229 27.0225C401.05 27.1169 400.907 27.2471 400.8 27.4131C400.692 27.5791 400.614 27.7695 400.565 27.9844C400.52 28.196 400.497 28.4206 400.497 28.6582ZM403.92 28.1602L403.314 28.3457C403.318 28.056 403.365 27.7777 403.456 27.5107C403.55 27.2438 403.686 27.0062 403.861 26.7979C404.04 26.5895 404.26 26.4251 404.521 26.3047C404.781 26.181 405.079 26.1191 405.414 26.1191C405.697 26.1191 405.948 26.1566 406.166 26.2314C406.387 26.3063 406.573 26.4219 406.723 26.5781C406.876 26.7311 406.991 26.9281 407.069 27.1689C407.147 27.4098 407.187 27.6963 407.187 28.0283V31.5H406.278V28.0186C406.278 27.7223 406.231 27.4928 406.137 27.3301C406.046 27.1641 405.915 27.0485 405.746 26.9834C405.58 26.915 405.382 26.8809 405.15 26.8809C404.952 26.8809 404.776 26.915 404.623 26.9834C404.47 27.0518 404.341 27.1462 404.237 27.2666C404.133 27.3838 404.053 27.5189 403.998 27.6719C403.946 27.8249 403.92 27.9876 403.92 28.1602ZM410.038 30.9531L411.508 26.2168H412.475L410.355 32.3154C410.307 32.4456 410.242 32.5856 410.16 32.7354C410.082 32.8883 409.981 33.0332 409.857 33.1699C409.734 33.3066 409.584 33.4173 409.408 33.502C409.236 33.5898 409.029 33.6338 408.788 33.6338C408.716 33.6338 408.625 33.624 408.515 33.6045C408.404 33.585 408.326 33.5687 408.28 33.5557L408.275 32.8232C408.301 32.8265 408.342 32.8298 408.397 32.833C408.456 32.8395 408.497 32.8428 408.52 32.8428C408.725 32.8428 408.899 32.8151 409.042 32.7598C409.185 32.7077 409.306 32.6182 409.403 32.4912C409.504 32.3675 409.59 32.1966 409.662 31.9785L410.038 30.9531ZM408.959 26.2168L410.331 30.3184L410.565 31.2705L409.916 31.6025L407.973 26.2168H408.959ZM420.219 30.7334V31.5H416.664V30.7334H420.219ZM416.85 24.3906V31.5H415.907V24.3906H416.85ZM423.354 31.5977C422.986 31.5977 422.652 31.5358 422.353 31.4121C422.056 31.2852 421.801 31.1077 421.586 30.8799C421.374 30.652 421.212 30.3818 421.098 30.0693C420.984 29.7568 420.927 29.415 420.927 29.0439V28.8389C420.927 28.4092 420.99 28.0267 421.117 27.6914C421.244 27.3529 421.417 27.0664 421.635 26.832C421.853 26.5977 422.1 26.4202 422.377 26.2998C422.654 26.1794 422.94 26.1191 423.236 26.1191C423.614 26.1191 423.939 26.1842 424.213 26.3145C424.49 26.4447 424.716 26.627 424.892 26.8613C425.067 27.0924 425.198 27.3659 425.282 27.6816C425.367 27.9941 425.409 28.3359 425.409 28.707V29.1123H421.464V28.375H424.506V28.3066C424.493 28.0723 424.444 27.8444 424.359 27.623C424.278 27.4017 424.148 27.2194 423.969 27.0762C423.79 26.9329 423.546 26.8613 423.236 26.8613C423.031 26.8613 422.842 26.9053 422.67 26.9932C422.497 27.0778 422.349 27.2048 422.226 27.374C422.102 27.5433 422.006 27.75 421.938 27.9941C421.869 28.2383 421.835 28.5199 421.835 28.8389V29.0439C421.835 29.2946 421.869 29.5306 421.938 29.752C422.009 29.9701 422.112 30.1621 422.245 30.3281C422.382 30.4941 422.546 30.6243 422.738 30.7188C422.934 30.8132 423.155 30.8604 423.402 30.8604C423.721 30.8604 423.992 30.7952 424.213 30.665C424.434 30.5348 424.628 30.3607 424.794 30.1426L425.341 30.5771C425.227 30.7497 425.082 30.9141 424.906 31.0703C424.73 31.2266 424.514 31.3535 424.257 31.4512C424.003 31.5488 423.702 31.5977 423.354 31.5977ZM429.579 30.5967V27.877C429.579 27.6686 429.537 27.488 429.452 27.335C429.371 27.1787 429.247 27.0583 429.081 26.9736C428.915 26.889 428.71 26.8467 428.466 26.8467C428.238 26.8467 428.038 26.8857 427.865 26.9639C427.696 27.042 427.562 27.1445 427.465 27.2715C427.37 27.3984 427.323 27.5352 427.323 27.6816H426.42C426.42 27.4928 426.469 27.3057 426.566 27.1201C426.664 26.9346 426.804 26.7669 426.986 26.6172C427.172 26.4642 427.393 26.3438 427.65 26.2559C427.911 26.1647 428.201 26.1191 428.52 26.1191C428.904 26.1191 429.242 26.1842 429.535 26.3145C429.831 26.4447 430.062 26.6416 430.229 26.9053C430.398 27.1657 430.482 27.4928 430.482 27.8867V30.3477C430.482 30.5234 430.497 30.7106 430.526 30.9092C430.559 31.1077 430.606 31.2786 430.668 31.4219V31.5H429.726C429.68 31.3958 429.644 31.2575 429.618 31.085C429.592 30.9092 429.579 30.7464 429.579 30.5967ZM429.735 28.2969L429.745 28.9316H428.832C428.575 28.9316 428.345 28.9528 428.144 28.9951C427.942 29.0342 427.772 29.0944 427.636 29.1758C427.499 29.2572 427.395 29.3597 427.323 29.4834C427.252 29.6038 427.216 29.7454 427.216 29.9082C427.216 30.0742 427.253 30.2256 427.328 30.3623C427.403 30.499 427.515 30.6081 427.665 30.6895C427.818 30.7676 428.005 30.8066 428.227 30.8066C428.503 30.8066 428.747 30.748 428.959 30.6309C429.171 30.5137 429.338 30.3704 429.462 30.2012C429.589 30.0319 429.657 29.8675 429.667 29.708L430.053 30.1426C430.03 30.2793 429.968 30.4307 429.867 30.5967C429.766 30.7627 429.631 30.9222 429.462 31.0752C429.296 31.2249 429.097 31.3503 428.866 31.4512C428.638 31.5488 428.381 31.5977 428.095 31.5977C427.737 31.5977 427.423 31.5277 427.152 31.3877C426.885 31.2477 426.677 31.0605 426.527 30.8262C426.381 30.5885 426.308 30.3232 426.308 30.0303C426.308 29.7471 426.363 29.498 426.474 29.2832C426.584 29.0651 426.744 28.8844 426.952 28.7412C427.16 28.5947 427.411 28.484 427.704 28.4092C427.997 28.3343 428.324 28.2969 428.686 28.2969H429.735ZM432.807 27.0469V31.5H431.903V26.2168H432.782L432.807 27.0469ZM434.457 26.1875L434.452 27.0273C434.377 27.0111 434.306 27.0013 434.237 26.998C434.172 26.9915 434.097 26.9883 434.013 26.9883C433.804 26.9883 433.62 27.0208 433.461 27.0859C433.301 27.151 433.166 27.2422 433.056 27.3594C432.945 27.4766 432.857 27.6165 432.792 27.7793C432.73 27.9388 432.689 28.1146 432.67 28.3066L432.416 28.4531C432.416 28.1341 432.447 27.8346 432.509 27.5547C432.574 27.2747 432.673 27.0273 432.807 26.8125C432.94 26.5944 433.109 26.4251 433.314 26.3047C433.523 26.181 433.77 26.1191 434.057 26.1191C434.122 26.1191 434.197 26.1273 434.281 26.1436C434.366 26.1566 434.424 26.1712 434.457 26.1875ZM436.195 27.3447V31.5H435.292V26.2168H436.146L436.195 27.3447ZM435.98 28.6582L435.604 28.6436C435.608 28.2822 435.661 27.9486 435.766 27.6426C435.87 27.3333 436.016 27.0648 436.205 26.8369C436.394 26.609 436.618 26.4333 436.879 26.3096C437.143 26.1826 437.434 26.1191 437.753 26.1191C438.013 26.1191 438.248 26.1549 438.456 26.2266C438.664 26.2949 438.842 26.4056 438.988 26.5586C439.138 26.7116 439.252 26.9102 439.33 27.1543C439.408 27.3952 439.447 27.6898 439.447 28.0381V31.5H438.539V28.0283C438.539 27.7516 438.498 27.5303 438.417 27.3643C438.336 27.195 438.217 27.0729 438.061 26.998C437.904 26.9199 437.712 26.8809 437.484 26.8809C437.26 26.8809 437.055 26.9281 436.869 27.0225C436.687 27.1169 436.529 27.2471 436.396 27.4131C436.265 27.5791 436.163 27.7695 436.088 27.9844C436.016 28.196 435.98 28.4206 435.98 28.6582ZM441.801 26.2168V31.5H440.893V26.2168H441.801ZM440.824 24.8154C440.824 24.6689 440.868 24.5452 440.956 24.4443C441.047 24.3434 441.181 24.293 441.356 24.293C441.529 24.293 441.661 24.3434 441.752 24.4443C441.846 24.5452 441.894 24.6689 441.894 24.8154C441.894 24.9554 441.846 25.0758 441.752 25.1768C441.661 25.2744 441.529 25.3232 441.356 25.3232C441.181 25.3232 441.047 25.2744 440.956 25.1768C440.868 25.0758 440.824 24.9554 440.824 24.8154ZM444.154 27.3447V31.5H443.251V26.2168H444.105L444.154 27.3447ZM443.939 28.6582L443.563 28.6436C443.567 28.2822 443.62 27.9486 443.725 27.6426C443.829 27.3333 443.975 27.0648 444.164 26.8369C444.353 26.609 444.577 26.4333 444.838 26.3096C445.102 26.1826 445.393 26.1191 445.712 26.1191C445.972 26.1191 446.207 26.1549 446.415 26.2266C446.623 26.2949 446.801 26.4056 446.947 26.5586C447.097 26.7116 447.211 26.9102 447.289 27.1543C447.367 27.3952 447.406 27.6898 447.406 28.0381V31.5H446.498V28.0283C446.498 27.7516 446.457 27.5303 446.376 27.3643C446.295 27.195 446.176 27.0729 446.02 26.998C445.863 26.9199 445.671 26.8809 445.443 26.8809C445.219 26.8809 445.014 26.9281 444.828 27.0225C444.646 27.1169 444.488 27.2471 444.354 27.4131C444.224 27.5791 444.122 27.7695 444.047 27.9844C443.975 28.196 443.939 28.4206 443.939 28.6582ZM452.201 26.2168H453.021V31.3877C453.021 31.8532 452.927 32.2503 452.738 32.5791C452.549 32.9079 452.286 33.1569 451.947 33.3262C451.612 33.4987 451.225 33.585 450.785 33.585C450.603 33.585 450.388 33.5557 450.141 33.4971C449.896 33.4417 449.656 33.3457 449.418 33.209C449.184 33.0755 448.987 32.8949 448.827 32.667L449.301 32.1299C449.522 32.3968 449.753 32.5824 449.994 32.6865C450.238 32.7907 450.479 32.8428 450.717 32.8428C451.003 32.8428 451.251 32.7891 451.459 32.6816C451.667 32.5742 451.828 32.4147 451.942 32.2031C452.06 31.9948 452.118 31.7376 452.118 31.4316V27.3789L452.201 26.2168ZM448.563 28.917V28.8145C448.563 28.4108 448.611 28.0446 448.705 27.7158C448.803 27.3838 448.941 27.099 449.12 26.8613C449.302 26.6237 449.522 26.4414 449.779 26.3145C450.036 26.1842 450.326 26.1191 450.648 26.1191C450.98 26.1191 451.27 26.1777 451.518 26.2949C451.768 26.4089 451.98 26.5765 452.152 26.7979C452.328 27.016 452.466 27.2796 452.567 27.5889C452.668 27.8981 452.738 28.248 452.777 28.6387V29.0879C452.742 29.4753 452.672 29.8236 452.567 30.1328C452.466 30.4421 452.328 30.7057 452.152 30.9238C451.98 31.1419 451.768 31.3096 451.518 31.4268C451.267 31.5407 450.974 31.5977 450.639 31.5977C450.323 31.5977 450.036 31.5309 449.779 31.3975C449.525 31.264 449.307 31.0768 449.125 30.8359C448.943 30.5951 448.803 30.3118 448.705 29.9863C448.611 29.6576 448.563 29.3011 448.563 28.917ZM449.467 28.8145V28.917C449.467 29.1807 449.493 29.4281 449.545 29.6592C449.6 29.8903 449.683 30.0938 449.794 30.2695C449.908 30.4453 450.053 30.5837 450.229 30.6846C450.404 30.7822 450.614 30.8311 450.858 30.8311C451.158 30.8311 451.405 30.7676 451.601 30.6406C451.796 30.5137 451.951 30.346 452.064 30.1377C452.182 29.9294 452.273 29.7031 452.338 29.459V28.2822C452.302 28.1032 452.247 27.9307 452.172 27.7646C452.1 27.5954 452.006 27.4456 451.889 27.3154C451.775 27.182 451.633 27.0762 451.464 26.998C451.295 26.9199 451.096 26.8809 450.868 26.8809C450.621 26.8809 450.408 26.9329 450.229 27.0371C450.053 27.138 449.908 27.278 449.794 27.457C449.683 27.6328 449.6 27.8379 449.545 28.0723C449.493 28.3034 449.467 28.5508 449.467 28.8145ZM459.643 25.0205L457.289 31.5H456.327L459.037 24.3906H459.657L459.643 25.0205ZM461.615 31.5L459.257 25.0205L459.242 24.3906H459.862L462.582 31.5H461.615ZM461.493 28.8682V29.6396H457.499V28.8682H461.493ZM464.301 27.2324V33.5312H463.393V26.2168H464.223L464.301 27.2324ZM467.86 28.8145V28.917C467.86 29.3011 467.815 29.6576 467.724 29.9863C467.632 30.3118 467.499 30.5951 467.323 30.8359C467.151 31.0768 466.938 31.264 466.684 31.3975C466.43 31.5309 466.138 31.5977 465.81 31.5977C465.474 31.5977 465.178 31.5423 464.921 31.4316C464.664 31.321 464.446 31.1598 464.267 30.9482C464.088 30.7367 463.944 30.4827 463.837 30.1865C463.733 29.8903 463.661 29.5566 463.622 29.1855V28.6387C463.661 28.248 463.734 27.8981 463.842 27.5889C463.949 27.2796 464.091 27.016 464.267 26.7979C464.446 26.5765 464.662 26.4089 464.916 26.2949C465.17 26.1777 465.463 26.1191 465.795 26.1191C466.127 26.1191 466.422 26.1842 466.679 26.3145C466.936 26.4414 467.152 26.6237 467.328 26.8613C467.504 27.099 467.636 27.3838 467.724 27.7158C467.815 28.0446 467.86 28.4108 467.86 28.8145ZM466.952 28.917V28.8145C466.952 28.5508 466.924 28.3034 466.869 28.0723C466.814 27.8379 466.728 27.6328 466.61 27.457C466.496 27.278 466.35 27.138 466.171 27.0371C465.992 26.9329 465.779 26.8809 465.531 26.8809C465.303 26.8809 465.105 26.9199 464.936 26.998C464.77 27.0762 464.628 27.182 464.511 27.3154C464.394 27.4456 464.298 27.5954 464.223 27.7646C464.151 27.9307 464.097 28.1032 464.062 28.2822V29.5469C464.127 29.7747 464.218 29.9896 464.335 30.1914C464.452 30.39 464.608 30.5511 464.804 30.6748C464.999 30.7952 465.245 30.8555 465.541 30.8555C465.785 30.8555 465.995 30.805 466.171 30.7041C466.35 30.5999 466.496 30.4583 466.61 30.2793C466.728 30.1003 466.814 29.8952 466.869 29.6641C466.924 29.4297 466.952 29.1807 466.952 28.917ZM469.916 27.2324V33.5312H469.008V26.2168H469.838L469.916 27.2324ZM473.476 28.8145V28.917C473.476 29.3011 473.43 29.6576 473.339 29.9863C473.248 30.3118 473.114 30.5951 472.938 30.8359C472.766 31.0768 472.553 31.264 472.299 31.3975C472.045 31.5309 471.754 31.5977 471.425 31.5977C471.09 31.5977 470.793 31.5423 470.536 31.4316C470.279 31.321 470.061 31.1598 469.882 30.9482C469.703 30.7367 469.56 30.4827 469.452 30.1865C469.348 29.8903 469.276 29.5566 469.237 29.1855V28.6387C469.276 28.248 469.35 27.8981 469.457 27.5889C469.564 27.2796 469.706 27.016 469.882 26.7979C470.061 26.5765 470.277 26.4089 470.531 26.2949C470.785 26.1777 471.078 26.1191 471.41 26.1191C471.742 26.1191 472.037 26.1842 472.294 26.3145C472.551 26.4414 472.768 26.6237 472.943 26.8613C473.119 27.099 473.251 27.3838 473.339 27.7158C473.43 28.0446 473.476 28.4108 473.476 28.8145ZM472.567 28.917V28.8145C472.567 28.5508 472.54 28.3034 472.484 28.0723C472.429 27.8379 472.343 27.6328 472.226 27.457C472.112 27.278 471.965 27.138 471.786 27.0371C471.607 26.9329 471.394 26.8809 471.146 26.8809C470.919 26.8809 470.72 26.9199 470.551 26.998C470.385 27.0762 470.243 27.182 470.126 27.3154C470.009 27.4456 469.913 27.5954 469.838 27.7646C469.766 27.9307 469.713 28.1032 469.677 28.2822V29.5469C469.742 29.7747 469.833 29.9896 469.95 30.1914C470.067 30.39 470.224 30.5511 470.419 30.6748C470.614 30.7952 470.86 30.8555 471.156 30.8555C471.4 30.8555 471.61 30.805 471.786 30.7041C471.965 30.5999 472.112 30.4583 472.226 30.2793C472.343 30.1003 472.429 29.8952 472.484 29.6641C472.54 29.4297 472.567 29.1807 472.567 28.917Z" fill="#404040"/>
<path d="M594.833 21.5637C595.086 21.5637 595.296 21.7517 595.329 21.9958L595.333 22.0636L595.334 26.8971H600.17C600.446 26.8971 600.67 27.1209 600.67 27.3971C600.67 27.6502 600.481 27.8594 600.237 27.8925L600.17 27.8971H595.334L595.335 32.7298C595.336 33.0059 595.112 33.2299 594.836 33.2299C594.582 33.2299 594.373 33.0419 594.34 32.7979L594.335 32.73L594.334 27.8971H589.501C589.225 27.8971 589.001 27.6732 589.001 27.3971C589.001 27.1439 589.19 26.9347 589.434 26.9016L589.501 26.8971H594.334L594.333 22.0638C594.333 21.7877 594.557 21.5637 594.833 21.5637Z" fill="#BFBFBF" stroke="#BFBFBF" stroke-width="0.5"/>
<path d="M622.6 21.1637C621.495 21.1637 620.6 22.0591 620.6 23.1637V29.5637C620.6 30.6683 621.495 31.5637 622.6 31.5637H629C630.105 31.5637 631 30.6683 631 29.5637V23.1637C631 22.0591 630.105 21.1637 629 21.1637H622.6ZM621.4 29.5637V24.3637H630.2V29.5637C630.2 30.2264 629.663 30.7637 629 30.7637H622.6C621.937 30.7637 621.4 30.2264 621.4 29.5637ZM621.4 23.5637V23.1637C621.4 22.501 621.937 21.9637 622.6 21.9637H629C629.663 21.9637 630.2 22.501 630.2 23.1637V23.5637H621.4ZM625 33.9637C624.032 33.9637 623.225 33.2766 623.04 32.3637H623.868C624.033 32.8298 624.477 33.1637 625 33.1637H630.2C631.525 33.1637 632.6 32.0892 632.6 30.7637V25.5637C632.6 25.0412 632.266 24.5967 631.8 24.432V23.6037C632.713 23.789 633.4 24.5961 633.4 25.5637V30.7637C633.4 32.531 631.967 33.9637 630.2 33.9637H625Z" fill="#BFBFBF" stroke="#BFBFBF" stroke-width="0.5"/>
</svg>
