<svg width="382" height="322" viewBox="0 0 382 322" fill="none" xmlns="http://www.w3.org/2000/svg">
<g style="mix-blend-mode:overlay" opacity="0.5" clip-path="url(#clip0_2988_171)">
<path d="M371.331 14.7996C370.51 12.9309 369.018 11.436 367.227 10.6886C366.257 10.2401 270.757 -29.9729 192.194 48.6592C177.197 63.6831 162.723 81.3977 149.443 100.084L131.312 95.8983C103.931 89.545 75.7285 97.6175 55.8078 117.5L6.34179 167.131C-6.78946 180.286 1.6414 202.635 19.9207 204.055L89.6058 209.661C86.5469 217.808 83.9355 225.806 82.4433 231.113C81.1004 235.822 81.3242 240.68 82.7418 245.165C70.1328 248.603 58.643 254.882 52.1519 261.385C37.8269 275.661 25.0687 338.223 22.6812 350.631C21.6367 356.61 26.934 361.17 32.0074 359.974C44.3926 357.507 106.841 344.726 121.091 330.449C127.88 323.648 133.998 311.987 137.356 299.804C142.131 301.299 146.98 301.299 151.382 300.028H151.457C156.754 298.533 164.514 296.067 172.795 292.852L178.391 362.665C179.809 380.977 202.191 389.349 215.248 376.268L264.789 326.637C284.635 306.755 292.767 278.427 286.351 250.995L282.173 232.832C300.825 219.527 318.507 205.027 333.504 190.003C411.993 111.445 371.779 15.7713 371.331 14.7996ZM17.6824 178.417L67.1484 128.786C83.1894 112.716 105.871 106.288 127.731 111.445L139.743 114.211C121.912 141.045 106.841 169.149 95.9476 194.114L21.1891 188.134C16.3394 187.686 14.2504 181.781 17.6824 178.417ZM109.825 319.238C102.886 326.189 68.4914 335.831 40.7367 341.96C46.7801 314.08 56.4047 279.697 63.418 272.746C69.4613 266.617 81.2496 261.31 92.7394 259.217L123.329 289.863C123.255 290.162 123.255 290.461 123.18 290.834C120.942 301.822 115.495 313.557 109.825 319.238ZM138.475 282.388L100.126 243.969C97.8875 241.727 96.9922 238.363 97.8129 235.373C98.4844 233.056 99.7527 228.721 101.394 223.862L158.545 281.117C155.113 282.313 150.562 283.734 147.055 284.705C144.071 285.602 140.788 284.705 138.475 282.388ZM270.757 254.732C275.831 276.782 269.414 299.43 253.448 315.426L203.907 365.057C200.475 368.495 194.656 366.327 194.208 361.544L188.239 286.649C213.159 275.811 241.212 260.637 267.997 242.773L270.757 254.732ZM174.884 274.914L107.512 207.419C126.537 160.852 162.872 100.533 203.385 59.9458C249.643 13.6036 310.45 6.65232 357.827 24.1427C363.422 39.8393 385.656 115.257 322.089 178.94C281.576 219.527 221.366 255.928 174.884 274.914Z" fill="white"/>
<path d="M233.229 71.3071C211.816 92.759 211.816 127.516 233.229 149.042C254.642 170.494 289.335 170.494 310.823 149.042C332.236 127.59 332.236 92.759 310.823 71.3071C289.335 49.8552 254.642 49.8552 233.229 71.3071ZM299.557 137.756C284.336 153.004 259.715 153.004 244.495 137.756C229.275 122.508 229.275 97.8417 244.495 82.5936C259.715 67.3456 284.336 67.3456 299.557 82.5936C314.702 97.8417 314.702 122.582 299.557 137.756Z" fill="white"/>
</g>
<defs>
<clipPath id="clip0_2988_171">
<rect width="382" height="322" fill="white"/>
</clipPath>
</defs>
</svg>
